<svg xmlns="http://www.w3.org/2000/svg" xmlns:xlink="http://www.w3.org/1999/xlink" version="1.1" width="786.1" height="602.1" viewBox="99.9 49.9 786.1 602.1"><g><g transform="translate(332,236)"><g><g>
<path d="M79.9,0c-17.3,0,-31.9,13.1,-37.2,31.6C18.8,35,0,59.4,0,89.4c0,32,21.5,58.1,47.9,58.1c1.3,0,2.8,0,4.1,-0.4c4.6,19,18.8,32.9,36.3,32.9c14.2,0,26.8,-9.7,33,-24c6.6,8.4,16,13.5,26.4,13.5c16.3,0,30.2,-12.6,35.1,-30.4c0.3,0,0.3,0,0.7,0c21.8,0,39.5,-21.5,39.5,-48s-17.7,-48.1,-39.7,-48.1c-4.2,0,-8,0.9,-11.4,2.1c-3.5,-18.1,-17,-31.6,-33,-31.6c-9.4,0,-17.7,4.6,-24,12.2C108.3,10.5,95.2,0,79.9,0L79.9,0z" stroke="#000000" stroke-dasharray="none" fill="#FFFFFF"/>
<rect x="20.2" y="56" width="178.9" height="68.3" fill="none"/>
<circle fill="none" cx="114.9" cy="25.6" r="0.1"/>
<circle fill="none" cx="146.5" cy="14.5" r="0.1"/>
<circle fill="none" cx="172" cy="45" r="0.1"/>
<circle fill="none" cx="223" cy="89.5" r="0.1"/>
<circle fill="none" cx="182.7" cy="139.2" r="0.1"/>
<circle fill="none" cx="150.4" cy="169.4" r="0.1"/>
<circle fill="none" cx="121.2" cy="156" r="0.1"/>
<circle fill="none" cx="87.1" cy="180" r="0.1"/>
<circle fill="none" cx="0" cy="89.4" r="0.1"/>
<circle fill="none" cx="52" cy="147.1" r="0.1"/>
<circle fill="none" cx="42.7" cy="31.6" r="0.1"/>
<circle fill="none" cx="79.8" cy="0" r="0.1"/>
</g></g><rect stroke="none" stroke-width="0" fill="#FFFFFF" x="0" y="0" width="0" height="0" transform="translate(222.9,89.4)"/><path stroke="#000000" fill="none" d=""/><text font-family="OpenSansCondensedLight" font-size="14pt" fill="black" transform="translate(222.9,89.4)"/><rect stroke-width="0" fill="none" width="178.9" height="68.3" transform="translate(20.2,56)"/><text font-family="OpenSansCondensedLight" font-size="14pt" fill="black" transform="translate(20.2,56)" text-anchor="middle"><tspan x="89.5" y="64.1"> 102</tspan></text><path stroke="#000000" fill="none" transform="translate(20.2,56)" d="M 75.5 66 103.4 66"/></g><g transform="translate(100,240)"><g><g>
<path d="M79.9,0c-17.3,0,-31.9,13.1,-37.2,31.6C18.8,35,0,59.4,0,89.4c0,32,21.5,58.1,47.9,58.1c1.3,0,2.8,0,4.1,-0.4c4.6,19,18.8,32.9,36.3,32.9c14.2,0,26.8,-9.7,33,-24c6.6,8.4,16,13.5,26.4,13.5c16.3,0,30.2,-12.6,35.1,-30.4c0.3,0,0.3,0,0.7,0c21.8,0,39.5,-21.5,39.5,-48s-17.7,-48.1,-39.7,-48.1c-4.2,0,-8,0.9,-11.4,2.1c-3.5,-18.1,-17,-31.6,-33,-31.6c-9.4,0,-17.7,4.6,-24,12.2C108.3,10.5,95.2,0,79.9,0L79.9,0z" stroke="#000000" stroke-dasharray="none" fill="#FFFFFF"/>
<rect x="20.2" y="56" width="178.9" height="68.3" fill="none"/>
<circle fill="none" cx="114.9" cy="25.6" r="0.1"/>
<circle fill="none" cx="146.5" cy="14.5" r="0.1"/>
<circle fill="none" cx="172" cy="45" r="0.1"/>
<circle fill="none" cx="223" cy="89.5" r="0.1"/>
<circle fill="none" cx="182.7" cy="139.2" r="0.1"/>
<circle fill="none" cx="150.4" cy="169.4" r="0.1"/>
<circle fill="none" cx="121.2" cy="156" r="0.1"/>
<circle fill="none" cx="87.1" cy="180" r="0.1"/>
<circle fill="none" cx="0" cy="89.4" r="0.1"/>
<circle fill="none" cx="52" cy="147.1" r="0.1"/>
<circle fill="none" cx="42.7" cy="31.6" r="0.1"/>
<circle fill="none" cx="79.8" cy="0" r="0.1"/>
</g></g><rect stroke="none" stroke-width="0" fill="#FFFFFF" x="0" y="0" width="0" height="0" transform="translate(222.9,89.4)"/><path stroke="#000000" fill="none" d=""/><text font-family="OpenSansCondensedLight" font-size="14pt" fill="black" transform="translate(222.9,89.4)"/><rect stroke-width="0" fill="none" width="178.9" height="68.3" transform="translate(20.2,56)"/><text font-family="OpenSansCondensedLight" font-size="14pt" fill="black" transform="translate(20.2,56)" text-anchor="middle"><tspan x="89.5" y="64.1"> 104</tspan></text><path stroke="#000000" fill="none" transform="translate(20.2,56)" d="M 75.5 66 103.4 66"/></g><g transform="translate(563,234)"><g><g>
<path d="M79.9,0c-17.3,0,-31.9,13.1,-37.2,31.6C18.8,35,0,59.4,0,89.4c0,32,21.5,58.1,47.9,58.1c1.3,0,2.8,0,4.1,-0.4c4.6,19,18.8,32.9,36.3,32.9c14.2,0,26.8,-9.7,33,-24c6.6,8.4,16,13.5,26.4,13.5c16.3,0,30.2,-12.6,35.1,-30.4c0.3,0,0.3,0,0.7,0c21.8,0,39.5,-21.5,39.5,-48s-17.7,-48.1,-39.7,-48.1c-4.2,0,-8,0.9,-11.4,2.1c-3.5,-18.1,-17,-31.6,-33,-31.6c-9.4,0,-17.7,4.6,-24,12.2C108.3,10.5,95.2,0,79.9,0L79.9,0z" stroke="#000000" stroke-dasharray="none" fill="#FFFFFF"/>
<rect x="20.2" y="56" width="178.9" height="68.3" fill="none"/>
<circle fill="none" cx="114.9" cy="25.6" r="0.1"/>
<circle fill="none" cx="146.5" cy="14.5" r="0.1"/>
<circle fill="none" cx="172" cy="45" r="0.1"/>
<circle fill="none" cx="223" cy="89.5" r="0.1"/>
<circle fill="none" cx="182.7" cy="139.2" r="0.1"/>
<circle fill="none" cx="150.4" cy="169.4" r="0.1"/>
<circle fill="none" cx="121.2" cy="156" r="0.1"/>
<circle fill="none" cx="87.1" cy="180" r="0.1"/>
<circle fill="none" cx="0" cy="89.4" r="0.1"/>
<circle fill="none" cx="52" cy="147.1" r="0.1"/>
<circle fill="none" cx="42.7" cy="31.6" r="0.1"/>
<circle fill="none" cx="79.8" cy="0" r="0.1"/>
</g></g><rect stroke="none" stroke-width="0" fill="#FFFFFF" x="0" y="0" width="0" height="0" transform="translate(222.9,89.4)"/><path stroke="#000000" fill="none" d=""/><text font-family="OpenSansCondensedLight" font-size="14pt" fill="black" transform="translate(222.9,89.4)"/><rect stroke-width="0" fill="none" width="178.9" height="68.3" transform="translate(20.2,56)"/><text font-family="OpenSansCondensedLight" font-size="14pt" fill="black" transform="translate(20.2,56)" text-anchor="middle"><tspan x="89.5" y="64.1"> 106</tspan></text><path stroke="#000000" fill="none" transform="translate(20.2,56)" d="M 75.5 66 103.4 66"/></g><g transform="translate(329,422)"><g><g>
<path d="M79.9,0c-17.3,0,-31.9,13.1,-37.2,31.6C18.8,35,0,59.4,0,89.4c0,32,21.5,58.1,47.9,58.1c1.3,0,2.8,0,4.1,-0.4c4.6,19,18.8,32.9,36.3,32.9c14.2,0,26.8,-9.7,33,-24c6.6,8.4,16,13.5,26.4,13.5c16.3,0,30.2,-12.6,35.1,-30.4c0.3,0,0.3,0,0.7,0c21.8,0,39.5,-21.5,39.5,-48s-17.7,-48.1,-39.7,-48.1c-4.2,0,-8,0.9,-11.4,2.1c-3.5,-18.1,-17,-31.6,-33,-31.6c-9.4,0,-17.7,4.6,-24,12.2C108.3,10.5,95.2,0,79.9,0L79.9,0z" stroke="#000000" stroke-dasharray="none" fill="#FFFFFF"/>
<rect x="20.2" y="56" width="178.9" height="68.3" fill="none"/>
<circle fill="none" cx="114.9" cy="25.6" r="0.1"/>
<circle fill="none" cx="146.5" cy="14.5" r="0.1"/>
<circle fill="none" cx="172" cy="45" r="0.1"/>
<circle fill="none" cx="223" cy="89.5" r="0.1"/>
<circle fill="none" cx="182.7" cy="139.2" r="0.1"/>
<circle fill="none" cx="150.4" cy="169.4" r="0.1"/>
<circle fill="none" cx="121.2" cy="156" r="0.1"/>
<circle fill="none" cx="87.1" cy="180" r="0.1"/>
<circle fill="none" cx="0" cy="89.4" r="0.1"/>
<circle fill="none" cx="52" cy="147.1" r="0.1"/>
<circle fill="none" cx="42.7" cy="31.6" r="0.1"/>
<circle fill="none" cx="79.8" cy="0" r="0.1"/>
</g></g><rect stroke="none" stroke-width="0" fill="#FFFFFF" x="0" y="0" width="0" height="0" transform="translate(222.9,89.4)"/><path stroke="#000000" fill="none" d=""/><text font-family="OpenSansCondensedLight" font-size="14pt" fill="black" transform="translate(222.9,89.4)"/><rect stroke-width="0" fill="none" width="178.9" height="68.3" transform="translate(20.2,56)"/><text font-family="OpenSansCondensedLight" font-size="14pt" fill="black" transform="translate(20.2,56)" text-anchor="middle"><tspan x="89.5" y="64.1"> 108</tspan></text><path stroke="#000000" fill="none" transform="translate(20.2,56)" d="M 75.5 66 103.4 66"/></g><g transform="translate(320,50)"><g><g>
<path d="M79.9,0c-17.3,0,-31.9,13.1,-37.2,31.6C18.8,35,0,59.4,0,89.4c0,32,21.5,58.1,47.9,58.1c1.3,0,2.8,0,4.1,-0.4c4.6,19,18.8,32.9,36.3,32.9c14.2,0,26.8,-9.7,33,-24c6.6,8.4,16,13.5,26.4,13.5c16.3,0,30.2,-12.6,35.1,-30.4c0.3,0,0.3,0,0.7,0c21.8,0,39.5,-21.5,39.5,-48s-17.7,-48.1,-39.7,-48.1c-4.2,0,-8,0.9,-11.4,2.1c-3.5,-18.1,-17,-31.6,-33,-31.6c-9.4,0,-17.7,4.6,-24,12.2C108.3,10.5,95.2,0,79.9,0L79.9,0z" stroke="#000000" stroke-dasharray="none" fill="#FFFFFF"/>
<rect x="20.2" y="56" width="178.9" height="68.3" fill="none"/>
<circle fill="none" cx="114.9" cy="25.6" r="0.1"/>
<circle fill="none" cx="146.5" cy="14.5" r="0.1"/>
<circle fill="none" cx="172" cy="45" r="0.1"/>
<circle fill="none" cx="223" cy="89.5" r="0.1"/>
<circle fill="none" cx="182.7" cy="139.2" r="0.1"/>
<circle fill="none" cx="150.4" cy="169.4" r="0.1"/>
<circle fill="none" cx="121.2" cy="156" r="0.1"/>
<circle fill="none" cx="87.1" cy="180" r="0.1"/>
<circle fill="none" cx="0" cy="89.4" r="0.1"/>
<circle fill="none" cx="52" cy="147.1" r="0.1"/>
<circle fill="none" cx="42.7" cy="31.6" r="0.1"/>
<circle fill="none" cx="79.8" cy="0" r="0.1"/>
</g></g><rect stroke="none" stroke-width="0" fill="#FFFFFF" x="0" y="0" width="0" height="0" transform="translate(222.9,89.4)"/><path stroke="#000000" fill="none" d=""/><text font-family="OpenSansCondensedLight" font-size="14pt" fill="black" transform="translate(222.9,89.4)"/><rect stroke-width="0" fill="none" width="178.9" height="68.3" transform="translate(20.2,56)"/><text font-family="OpenSansCondensedLight" font-size="14pt" fill="black" transform="translate(20.2,56)" text-anchor="middle"><tspan x="89.5" y="64.1"> 110</tspan></text><path stroke="#000000" fill="none" transform="translate(20.2,56)" d="M 75.8 66 103.1 66"/></g><g transform="translate(230,309)"><g><g>
<g fill="#FFFFFF">
    <path d="M49,14.1C49,6.3,38,0,24.5,0S0,6.3,0,14.1l0,0v18.8c0,7.8,11,14.1,24.5,14.1s24.5,-6.3,24.5,-14.1V14.1"/>
</g>
<g stroke="#000000" stroke-dasharray="none">
    <path fill="none" d="M0,14.1L0,14.1v18.8c0,7.8,11,14.1,24.5,14.1s24.5,-6.3,24.5,-14.1V14.1"/>
    <ellipse fill="none" cx="24.5" cy="14.1" rx="24.5" ry="14.1"/>
</g>
<path fill="none" stroke="#000000" d="M41.3,11.4V4.8H29.4l4.9,2.7l-9.7,5.4l2.1,1.2l9.7,-5.4L41.3,11.4z"/>
<path fill="none" stroke="#000000" d="M24.5,7.5l-1.1,6l-10.8,0.6l4.9,-2.7L6.7,5.4l2.1,-1.2l10.8,6L24.5,7.5z"/>
<path fill="none" stroke="#000000" d="M24.5,20.7l1.1,-6l10.8,-0.6l-4.9,2.7l10.8,6l-2.1,1.2L29.4,18L24.5,20.7z"/>
<path fill="none" stroke="#000000" d="M7.7,16.8v6.6h11.9L14.7,20.7l9.7,-5.4L22.4,14.1l-9.7,5.4L7.7,16.8z"/>
<rect x="5.3" y="6.2" fill="none" width="38.1" height="34.3"/>
<circle fill="none" cx="24" cy="-0" r="0.1"/>
<circle fill="none" cx="39.2" cy="2.7" r="0.1"/>
<circle fill="none" cx="48.4" cy="10.8" r="0.1"/>
<circle fill="none" cx="49" cy="24.4" r="0.1"/>
<circle fill="none" cx="47.9" cy="37.2" r="0.1"/>
<circle fill="none" cx="38.5" cy="44.3" r="0.1"/>
<circle fill="none" cx="24.4" cy="46.9" r="0.1"/>
<circle fill="none" cx="9.6" cy="43.9" r="0.1"/>
<circle fill="none" cx="1.2" cy="37.1" r="0.1"/>
<circle fill="none" cx="0" cy="25.1" r="0.1"/>
<circle fill="none" cx="0.4" cy="11.9" r="0.1"/>
<circle fill="none" cx="9" cy="3.1" r="0.1"/>
</g></g><rect stroke="none" stroke-width="0" fill="#FFFFFF" x="0" y="0" width="0" height="0" transform="translate(48.9,24.3)"/><path stroke="#000000" fill="none" d=""/><text font-family="OpenSansCondensedLight" font-size="14pt" fill="black" transform="translate(48.9,24.3)"/><rect stroke-width="0" fill="none" width="147.5" transform="translate(-49.3,-10.1)"/><text font-family="OpenSansCondensedLight" font-size="14pt" fill="black" transform="translate(-49.3,-10.1)" text-anchor="middle"><tspan x="73.8" y="-4.2">A</tspan></text><path stroke="#000000" fill="none" transform="translate(-49.3,-10.1)" d="M 0 0"/></g><g transform="translate(722,309)"><g><g>
<g fill="#FFFFFF">
    <path d="M49,14.1C49,6.3,38,0,24.5,0S0,6.3,0,14.1l0,0v18.8c0,7.8,11,14.1,24.5,14.1s24.5,-6.3,24.5,-14.1V14.1"/>
</g>
<g stroke="#000000" stroke-dasharray="none">
    <path fill="none" d="M0,14.1L0,14.1v18.8c0,7.8,11,14.1,24.5,14.1s24.5,-6.3,24.5,-14.1V14.1"/>
    <ellipse fill="none" cx="24.5" cy="14.1" rx="24.5" ry="14.1"/>
</g>
<path fill="none" stroke="#000000" d="M41.3,11.4V4.8H29.4l4.9,2.7l-9.7,5.4l2.1,1.2l9.7,-5.4L41.3,11.4z"/>
<path fill="none" stroke="#000000" d="M24.5,7.5l-1.1,6l-10.8,0.6l4.9,-2.7L6.7,5.4l2.1,-1.2l10.8,6L24.5,7.5z"/>
<path fill="none" stroke="#000000" d="M24.5,20.7l1.1,-6l10.8,-0.6l-4.9,2.7l10.8,6l-2.1,1.2L29.4,18L24.5,20.7z"/>
<path fill="none" stroke="#000000" d="M7.7,16.8v6.6h11.9L14.7,20.7l9.7,-5.4L22.4,14.1l-9.7,5.4L7.7,16.8z"/>
<rect x="5.3" y="6.2" fill="none" width="38.1" height="34.3"/>
<circle fill="none" cx="24" cy="-0" r="0.1"/>
<circle fill="none" cx="39.2" cy="2.7" r="0.1"/>
<circle fill="none" cx="48.4" cy="10.8" r="0.1"/>
<circle fill="none" cx="49" cy="24.4" r="0.1"/>
<circle fill="none" cx="47.9" cy="37.2" r="0.1"/>
<circle fill="none" cx="38.5" cy="44.3" r="0.1"/>
<circle fill="none" cx="24.4" cy="46.9" r="0.1"/>
<circle fill="none" cx="9.6" cy="43.9" r="0.1"/>
<circle fill="none" cx="1.2" cy="37.1" r="0.1"/>
<circle fill="none" cx="0" cy="25.1" r="0.1"/>
<circle fill="none" cx="0.4" cy="11.9" r="0.1"/>
<circle fill="none" cx="9" cy="3.1" r="0.1"/>
</g></g><rect stroke="none" stroke-width="0" fill="#FFFFFF" x="0" y="0" width="0" height="0" transform="translate(48.9,24.3)"/><path stroke="#000000" fill="none" d=""/><text font-family="OpenSansCondensedLight" font-size="14pt" fill="black" transform="translate(48.9,24.3)"/><rect stroke-width="0" fill="none" width="147.5" transform="translate(-49.3,-10.1)"/><text font-family="OpenSansCondensedLight" font-size="14pt" fill="black" transform="translate(-49.3,-10.1)" text-anchor="middle"><tspan x="73.8" y="-4.2">B</tspan></text><path stroke="#000000" fill="none" transform="translate(-49.3,-10.1)" d="M 0 0"/></g><g transform="translate(450,481)"><g><g>
<g fill="#FFFFFF">
    <path d="M49,14.1C49,6.3,38,0,24.5,0S0,6.3,0,14.1l0,0v18.8c0,7.8,11,14.1,24.5,14.1s24.5,-6.3,24.5,-14.1V14.1"/>
</g>
<g stroke="#000000" stroke-dasharray="none">
    <path fill="none" d="M0,14.1L0,14.1v18.8c0,7.8,11,14.1,24.5,14.1s24.5,-6.3,24.5,-14.1V14.1"/>
    <ellipse fill="none" cx="24.5" cy="14.1" rx="24.5" ry="14.1"/>
</g>
<path fill="none" stroke="#000000" d="M41.3,11.4V4.8H29.4l4.9,2.7l-9.7,5.4l2.1,1.2l9.7,-5.4L41.3,11.4z"/>
<path fill="none" stroke="#000000" d="M24.5,7.5l-1.1,6l-10.8,0.6l4.9,-2.7L6.7,5.4l2.1,-1.2l10.8,6L24.5,7.5z"/>
<path fill="none" stroke="#000000" d="M24.5,20.7l1.1,-6l10.8,-0.6l-4.9,2.7l10.8,6l-2.1,1.2L29.4,18L24.5,20.7z"/>
<path fill="none" stroke="#000000" d="M7.7,16.8v6.6h11.9L14.7,20.7l9.7,-5.4L22.4,14.1l-9.7,5.4L7.7,16.8z"/>
<rect x="5.3" y="6.2" fill="none" width="38.1" height="34.3"/>
<circle fill="none" cx="24" cy="-0" r="0.1"/>
<circle fill="none" cx="39.2" cy="2.7" r="0.1"/>
<circle fill="none" cx="48.4" cy="10.8" r="0.1"/>
<circle fill="none" cx="49" cy="24.4" r="0.1"/>
<circle fill="none" cx="47.9" cy="37.2" r="0.1"/>
<circle fill="none" cx="38.5" cy="44.3" r="0.1"/>
<circle fill="none" cx="24.4" cy="46.9" r="0.1"/>
<circle fill="none" cx="9.6" cy="43.9" r="0.1"/>
<circle fill="none" cx="1.2" cy="37.1" r="0.1"/>
<circle fill="none" cx="0" cy="25.1" r="0.1"/>
<circle fill="none" cx="0.4" cy="11.9" r="0.1"/>
<circle fill="none" cx="9" cy="3.1" r="0.1"/>
</g></g><rect stroke="none" stroke-width="0" fill="#FFFFFF" x="0" y="0" width="0" height="0" transform="translate(48.9,24.3)"/><path stroke="#000000" fill="none" d=""/><text font-family="OpenSansCondensedLight" font-size="14pt" fill="black" transform="translate(48.9,24.3)"/><rect stroke-width="0" fill="none" width="147.5" transform="translate(-49.3,-10.1)"/><text font-family="OpenSansCondensedLight" font-size="14pt" fill="black" transform="translate(-49.3,-10.1)" text-anchor="middle"><tspan x="73.8" y="-4.2">C</tspan></text><path stroke="#000000" fill="none" transform="translate(-49.3,-10.1)" d="M 0 0"/></g><g transform="translate(349,122)"><g><g>
<g fill="#FFFFFF">
    <path d="M49,14.1C49,6.3,38,0,24.5,0S0,6.3,0,14.1l0,0v18.8c0,7.8,11,14.1,24.5,14.1s24.5,-6.3,24.5,-14.1V14.1"/>
</g>
<g stroke="#000000" stroke-dasharray="none">
    <path fill="none" d="M0,14.1L0,14.1v18.8c0,7.8,11,14.1,24.5,14.1s24.5,-6.3,24.5,-14.1V14.1"/>
    <ellipse fill="none" cx="24.5" cy="14.1" rx="24.5" ry="14.1"/>
</g>
<path fill="none" stroke="#000000" d="M41.3,11.4V4.8H29.4l4.9,2.7l-9.7,5.4l2.1,1.2l9.7,-5.4L41.3,11.4z"/>
<path fill="none" stroke="#000000" d="M24.5,7.5l-1.1,6l-10.8,0.6l4.9,-2.7L6.7,5.4l2.1,-1.2l10.8,6L24.5,7.5z"/>
<path fill="none" stroke="#000000" d="M24.5,20.7l1.1,-6l10.8,-0.6l-4.9,2.7l10.8,6l-2.1,1.2L29.4,18L24.5,20.7z"/>
<path fill="none" stroke="#000000" d="M7.7,16.8v6.6h11.9L14.7,20.7l9.7,-5.4L22.4,14.1l-9.7,5.4L7.7,16.8z"/>
<rect x="5.3" y="6.2" fill="none" width="38.1" height="34.3"/>
<circle fill="none" cx="24" cy="-0" r="0.1"/>
<circle fill="none" cx="39.2" cy="2.7" r="0.1"/>
<circle fill="none" cx="48.4" cy="10.8" r="0.1"/>
<circle fill="none" cx="49" cy="24.4" r="0.1"/>
<circle fill="none" cx="47.9" cy="37.2" r="0.1"/>
<circle fill="none" cx="38.5" cy="44.3" r="0.1"/>
<circle fill="none" cx="24.4" cy="46.9" r="0.1"/>
<circle fill="none" cx="9.6" cy="43.9" r="0.1"/>
<circle fill="none" cx="1.2" cy="37.1" r="0.1"/>
<circle fill="none" cx="0" cy="25.1" r="0.1"/>
<circle fill="none" cx="0.4" cy="11.9" r="0.1"/>
<circle fill="none" cx="9" cy="3.1" r="0.1"/>
</g></g><rect stroke="none" stroke-width="0" fill="#FFFFFF" x="0" y="0" width="0" height="0" transform="translate(48.9,24.3)"/><path stroke="#000000" fill="none" d=""/><text font-family="OpenSansCondensedLight" font-size="14pt" fill="black" transform="translate(48.9,24.3)"/><rect stroke-width="0" fill="none" width="147.5" transform="translate(-49.3,-10.1)"/><text font-family="OpenSansCondensedLight" font-size="14pt" fill="black" transform="translate(-49.3,-10.1)" text-anchor="middle"><tspan x="73.8" y="-4.2">D</tspan></text><path stroke="#000000" fill="none" transform="translate(-49.3,-10.1)" d="M 0 0"/></g><g transform="translate(461,125)"><g><g>
<g fill="#FFFFFF">
    <path d="M49,14.1C49,6.3,38,0,24.5,0S0,6.3,0,14.1l0,0v18.8c0,7.8,11,14.1,24.5,14.1s24.5,-6.3,24.5,-14.1V14.1"/>
</g>
<g stroke="#000000" stroke-dasharray="none">
    <path fill="none" d="M0,14.1L0,14.1v18.8c0,7.8,11,14.1,24.5,14.1s24.5,-6.3,24.5,-14.1V14.1"/>
    <ellipse fill="none" cx="24.5" cy="14.1" rx="24.5" ry="14.1"/>
</g>
<path fill="none" stroke="#000000" d="M41.3,11.4V4.8H29.4l4.9,2.7l-9.7,5.4l2.1,1.2l9.7,-5.4L41.3,11.4z"/>
<path fill="none" stroke="#000000" d="M24.5,7.5l-1.1,6l-10.8,0.6l4.9,-2.7L6.7,5.4l2.1,-1.2l10.8,6L24.5,7.5z"/>
<path fill="none" stroke="#000000" d="M24.5,20.7l1.1,-6l10.8,-0.6l-4.9,2.7l10.8,6l-2.1,1.2L29.4,18L24.5,20.7z"/>
<path fill="none" stroke="#000000" d="M7.7,16.8v6.6h11.9L14.7,20.7l9.7,-5.4L22.4,14.1l-9.7,5.4L7.7,16.8z"/>
<rect x="5.3" y="6.2" fill="none" width="38.1" height="34.3"/>
<circle fill="none" cx="24" cy="-0" r="0.1"/>
<circle fill="none" cx="39.2" cy="2.7" r="0.1"/>
<circle fill="none" cx="48.4" cy="10.8" r="0.1"/>
<circle fill="none" cx="49" cy="24.4" r="0.1"/>
<circle fill="none" cx="47.9" cy="37.2" r="0.1"/>
<circle fill="none" cx="38.5" cy="44.3" r="0.1"/>
<circle fill="none" cx="24.4" cy="46.9" r="0.1"/>
<circle fill="none" cx="9.6" cy="43.9" r="0.1"/>
<circle fill="none" cx="1.2" cy="37.1" r="0.1"/>
<circle fill="none" cx="0" cy="25.1" r="0.1"/>
<circle fill="none" cx="0.4" cy="11.9" r="0.1"/>
<circle fill="none" cx="9" cy="3.1" r="0.1"/>
</g></g><rect stroke="none" stroke-width="0" fill="#FFFFFF" x="0" y="0" width="0" height="0" transform="translate(48.9,24.3)"/><path stroke="#000000" fill="none" d=""/><text font-family="OpenSansCondensedLight" font-size="14pt" fill="black" transform="translate(48.9,24.3)"/><rect stroke-width="0" fill="none" width="147.5" transform="translate(-49.3,-10.1)"/><text font-family="OpenSansCondensedLight" font-size="14pt" fill="black" transform="translate(-49.3,-10.1)" text-anchor="middle"><tspan x="73.8" y="-4.2">E</tspan></text><path stroke="#000000" fill="none" transform="translate(-49.3,-10.1)" d="M 0 0"/></g><g transform="translate(299,258)"><g><g>
<g fill="#FFFFFF">
    <path d="M55,14.1C55,6.3,42.7,0,27.5,0S0,6.3,0,14.1l0,0v18.8c0,7.8,12.3,14.1,27.5,14.1s27.5,-6.3,27.5,-14.1V14.1"/>
</g>
<g stroke="#000000" stroke-dasharray="none">
    <path fill="none" d="M0,14.1L0,14.1v18.8c0,7.8,12.3,14.1,27.5,14.1s27.5,-6.3,27.5,-14.1V14.1"/>
    <ellipse fill="none" cx="27.5" cy="14.1" rx="27.5" ry="14.1"/>
</g>
<path fill="none" stroke="#000000" d="M46.3,11.4V4.8H32.9l5.5,2.7l-10.9,5.4l2.4,1.2l10.9,-5.4L46.3,11.4z"/>
<path fill="none" stroke="#000000" d="M27.5,7.5l-1.2,6l-12.1,0.6l5.5,-2.7L7.5,5.4l2.4,-1.2l12.1,6L27.5,7.5z"/>
<path fill="none" stroke="#000000" d="M27.5,20.7l1.2,-6l12.1,-0.6l-5.5,2.7l12.1,6l-2.4,1.2L33,18L27.5,20.7z"/>
<path fill="none" stroke="#000000" d="M8.7,16.8v6.6h13.4L16.6,20.7l10.9,-5.4L25.1,14.1l-10.9,5.4L8.7,16.8z"/>
<rect x="6" y="6.2" fill="none" width="42.7" height="34.3"/>
<circle fill="none" cx="27" cy="-0" r="0.1"/>
<circle fill="none" cx="44" cy="2.7" r="0.1"/>
<circle fill="none" cx="54.3" cy="10.8" r="0.1"/>
<circle fill="none" cx="55" cy="24.4" r="0.1"/>
<circle fill="none" cx="53.8" cy="37.2" r="0.1"/>
<circle fill="none" cx="43.2" cy="44.3" r="0.1"/>
<circle fill="none" cx="27.4" cy="46.9" r="0.1"/>
<circle fill="none" cx="10.8" cy="43.9" r="0.1"/>
<circle fill="none" cx="1.3" cy="37.1" r="0.1"/>
<circle fill="none" cx="0" cy="25.1" r="0.1"/>
<circle fill="none" cx="0.4" cy="11.9" r="0.1"/>
<circle fill="none" cx="10.1" cy="3.1" r="0.1"/>
</g></g><rect stroke="none" stroke-width="0" fill="#FFFFFF" x="0" y="0" width="0" height="0" transform="translate(54.9,24.3)"/><path stroke="#000000" fill="none" d=""/><text font-family="OpenSansCondensedLight" font-size="14pt" fill="black" transform="translate(54.9,24.3)"/><rect stroke-width="0" fill="none" width="165.5" transform="translate(-55.3,-10.1)"/><text font-family="OpenSansCondensedLight" font-size="14pt" fill="black" transform="translate(-55.3,-10.1)" text-anchor="middle"><tspan x="82.8" y="-4.2">ABR1</tspan></text><path stroke="#000000" fill="none" transform="translate(-55.3,-10.1)" d="M 0 0"/></g><g transform="translate(300,352)"><g><g>
<g fill="#FFFFFF">
    <path d="M55,14.1C55,6.3,42.7,0,27.5,0S0,6.3,0,14.1l0,0v18.8c0,7.8,12.3,14.1,27.5,14.1s27.5,-6.3,27.5,-14.1V14.1"/>
</g>
<g stroke="#000000" stroke-dasharray="none">
    <path fill="none" d="M0,14.1L0,14.1v18.8c0,7.8,12.3,14.1,27.5,14.1s27.5,-6.3,27.5,-14.1V14.1"/>
    <ellipse fill="none" cx="27.5" cy="14.1" rx="27.5" ry="14.1"/>
</g>
<path fill="none" stroke="#000000" d="M46.3,11.4V4.8H32.9l5.5,2.7l-10.9,5.4l2.4,1.2l10.9,-5.4L46.3,11.4z"/>
<path fill="none" stroke="#000000" d="M27.5,7.5l-1.2,6l-12.1,0.6l5.5,-2.7L7.5,5.4l2.4,-1.2l12.1,6L27.5,7.5z"/>
<path fill="none" stroke="#000000" d="M27.5,20.7l1.2,-6l12.1,-0.6l-5.5,2.7l12.1,6l-2.4,1.2L33,18L27.5,20.7z"/>
<path fill="none" stroke="#000000" d="M8.7,16.8v6.6h13.4L16.6,20.7l10.9,-5.4L25.1,14.1l-10.9,5.4L8.7,16.8z"/>
<rect x="6" y="6.2" fill="none" width="42.7" height="34.3"/>
<circle fill="none" cx="27" cy="-0" r="0.1"/>
<circle fill="none" cx="44" cy="2.7" r="0.1"/>
<circle fill="none" cx="54.3" cy="10.8" r="0.1"/>
<circle fill="none" cx="55" cy="24.4" r="0.1"/>
<circle fill="none" cx="53.8" cy="37.2" r="0.1"/>
<circle fill="none" cx="43.2" cy="44.3" r="0.1"/>
<circle fill="none" cx="27.4" cy="46.9" r="0.1"/>
<circle fill="none" cx="10.8" cy="43.9" r="0.1"/>
<circle fill="none" cx="1.3" cy="37.1" r="0.1"/>
<circle fill="none" cx="0" cy="25.1" r="0.1"/>
<circle fill="none" cx="0.4" cy="11.9" r="0.1"/>
<circle fill="none" cx="10.1" cy="3.1" r="0.1"/>
</g></g><rect stroke="none" stroke-width="0" fill="#FFFFFF" x="0" y="0" width="0" height="0" transform="translate(54.9,24.3)"/><path stroke="#000000" fill="none" d=""/><text font-family="OpenSansCondensedLight" font-size="14pt" fill="black" transform="translate(54.9,24.3)"/><rect stroke-width="0" fill="none" width="165.5" transform="translate(-55.3,57)"/><text font-family="OpenSansCondensedLight" font-size="14pt" fill="black" transform="translate(-55.3,57)" text-anchor="middle"><tspan x="82.8" y="16.8">ABR2</tspan></text><path stroke="#000000" fill="none" transform="translate(-55.3,57)" d="M 0 0"/></g><g transform="translate(528,259)"><g><g>
<g fill="#FFFFFF">
    <path d="M55,14.1C55,6.3,42.7,0,27.5,0S0,6.3,0,14.1l0,0v18.8c0,7.8,12.3,14.1,27.5,14.1s27.5,-6.3,27.5,-14.1V14.1"/>
</g>
<g stroke="#000000" stroke-dasharray="none">
    <path fill="none" d="M0,14.1L0,14.1v18.8c0,7.8,12.3,14.1,27.5,14.1s27.5,-6.3,27.5,-14.1V14.1"/>
    <ellipse fill="none" cx="27.5" cy="14.1" rx="27.5" ry="14.1"/>
</g>
<path fill="none" stroke="#000000" d="M46.3,11.4V4.8H32.9l5.5,2.7l-10.9,5.4l2.4,1.2l10.9,-5.4L46.3,11.4z"/>
<path fill="none" stroke="#000000" d="M27.5,7.5l-1.2,6l-12.1,0.6l5.5,-2.7L7.5,5.4l2.4,-1.2l12.1,6L27.5,7.5z"/>
<path fill="none" stroke="#000000" d="M27.5,20.7l1.2,-6l12.1,-0.6l-5.5,2.7l12.1,6l-2.4,1.2L33,18L27.5,20.7z"/>
<path fill="none" stroke="#000000" d="M8.7,16.8v6.6h13.4L16.6,20.7l10.9,-5.4L25.1,14.1l-10.9,5.4L8.7,16.8z"/>
<rect x="6" y="6.2" fill="none" width="42.7" height="34.3"/>
<circle fill="none" cx="27" cy="-0" r="0.1"/>
<circle fill="none" cx="44" cy="2.7" r="0.1"/>
<circle fill="none" cx="54.3" cy="10.8" r="0.1"/>
<circle fill="none" cx="55" cy="24.4" r="0.1"/>
<circle fill="none" cx="53.8" cy="37.2" r="0.1"/>
<circle fill="none" cx="43.2" cy="44.3" r="0.1"/>
<circle fill="none" cx="27.4" cy="46.9" r="0.1"/>
<circle fill="none" cx="10.8" cy="43.9" r="0.1"/>
<circle fill="none" cx="1.3" cy="37.1" r="0.1"/>
<circle fill="none" cx="0" cy="25.1" r="0.1"/>
<circle fill="none" cx="0.4" cy="11.9" r="0.1"/>
<circle fill="none" cx="10.1" cy="3.1" r="0.1"/>
</g></g><rect stroke="none" stroke-width="0" fill="#FFFFFF" x="0" y="0" width="0" height="0" transform="translate(54.9,24.3)"/><path stroke="#000000" fill="none" d=""/><text font-family="OpenSansCondensedLight" font-size="14pt" fill="black" transform="translate(54.9,24.3)"/><rect stroke-width="0" fill="none" width="165.5" transform="translate(-55.3,-10.1)"/><text font-family="OpenSansCondensedLight" font-size="14pt" fill="black" transform="translate(-55.3,-10.1)" text-anchor="middle"><tspan x="82.8" y="-4.2">ABR3</tspan></text><path stroke="#000000" fill="none" transform="translate(-55.3,-10.1)" d="M 0 0"/></g><g transform="translate(532,355)"><g><g>
<g fill="#FFFFFF">
    <path d="M55,14.1C55,6.3,42.7,0,27.5,0S0,6.3,0,14.1l0,0v18.8c0,7.8,12.3,14.1,27.5,14.1s27.5,-6.3,27.5,-14.1V14.1"/>
</g>
<g stroke="#000000" stroke-dasharray="none">
    <path fill="none" d="M0,14.1L0,14.1v18.8c0,7.8,12.3,14.1,27.5,14.1s27.5,-6.3,27.5,-14.1V14.1"/>
    <ellipse fill="none" cx="27.5" cy="14.1" rx="27.5" ry="14.1"/>
</g>
<path fill="none" stroke="#000000" d="M46.3,11.4V4.8H32.9l5.5,2.7l-10.9,5.4l2.4,1.2l10.9,-5.4L46.3,11.4z"/>
<path fill="none" stroke="#000000" d="M27.5,7.5l-1.2,6l-12.1,0.6l5.5,-2.7L7.5,5.4l2.4,-1.2l12.1,6L27.5,7.5z"/>
<path fill="none" stroke="#000000" d="M27.5,20.7l1.2,-6l12.1,-0.6l-5.5,2.7l12.1,6l-2.4,1.2L33,18L27.5,20.7z"/>
<path fill="none" stroke="#000000" d="M8.7,16.8v6.6h13.4L16.6,20.7l10.9,-5.4L25.1,14.1l-10.9,5.4L8.7,16.8z"/>
<rect x="6" y="6.2" fill="none" width="42.7" height="34.3"/>
<circle fill="none" cx="27" cy="-0" r="0.1"/>
<circle fill="none" cx="44" cy="2.7" r="0.1"/>
<circle fill="none" cx="54.3" cy="10.8" r="0.1"/>
<circle fill="none" cx="55" cy="24.4" r="0.1"/>
<circle fill="none" cx="53.8" cy="37.2" r="0.1"/>
<circle fill="none" cx="43.2" cy="44.3" r="0.1"/>
<circle fill="none" cx="27.4" cy="46.9" r="0.1"/>
<circle fill="none" cx="10.8" cy="43.9" r="0.1"/>
<circle fill="none" cx="1.3" cy="37.1" r="0.1"/>
<circle fill="none" cx="0" cy="25.1" r="0.1"/>
<circle fill="none" cx="0.4" cy="11.9" r="0.1"/>
<circle fill="none" cx="10.1" cy="3.1" r="0.1"/>
</g></g><rect stroke="none" stroke-width="0" fill="#FFFFFF" x="0" y="0" width="0" height="0" transform="translate(54.9,24.3)"/><path stroke="#000000" fill="none" d=""/><text font-family="OpenSansCondensedLight" font-size="14pt" fill="black" transform="translate(54.9,24.3)"/><rect stroke-width="0" fill="none" width="165.5" transform="translate(-55.3,57)"/><text font-family="OpenSansCondensedLight" font-size="14pt" fill="black" transform="translate(-55.3,57)" text-anchor="middle"><tspan x="82.8" y="16.8">ABR4</tspan></text><path stroke="#000000" fill="none" transform="translate(-55.3,57)" d="M 0 0"/></g><g transform="translate(407,389)"><g><g>
<g fill="#FFFFFF">
    <path d="M55,14.1C55,6.3,42.7,0,27.5,0S0,6.3,0,14.1l0,0v18.8c0,7.8,12.3,14.1,27.5,14.1s27.5,-6.3,27.5,-14.1V14.1"/>
</g>
<g stroke="#000000" stroke-dasharray="none">
    <path fill="none" d="M0,14.1L0,14.1v18.8c0,7.8,12.3,14.1,27.5,14.1s27.5,-6.3,27.5,-14.1V14.1"/>
    <ellipse fill="none" cx="27.5" cy="14.1" rx="27.5" ry="14.1"/>
</g>
<path fill="none" stroke="#000000" d="M46.3,11.4V4.8H32.9l5.5,2.7l-10.9,5.4l2.4,1.2l10.9,-5.4L46.3,11.4z"/>
<path fill="none" stroke="#000000" d="M27.5,7.5l-1.2,6l-12.1,0.6l5.5,-2.7L7.5,5.4l2.4,-1.2l12.1,6L27.5,7.5z"/>
<path fill="none" stroke="#000000" d="M27.5,20.7l1.2,-6l12.1,-0.6l-5.5,2.7l12.1,6l-2.4,1.2L33,18L27.5,20.7z"/>
<path fill="none" stroke="#000000" d="M8.7,16.8v6.6h13.4L16.6,20.7l10.9,-5.4L25.1,14.1l-10.9,5.4L8.7,16.8z"/>
<rect x="6" y="6.2" fill="none" width="42.7" height="34.3"/>
<circle fill="none" cx="27" cy="-0" r="0.1"/>
<circle fill="none" cx="44" cy="2.7" r="0.1"/>
<circle fill="none" cx="54.3" cy="10.8" r="0.1"/>
<circle fill="none" cx="55" cy="24.4" r="0.1"/>
<circle fill="none" cx="53.8" cy="37.2" r="0.1"/>
<circle fill="none" cx="43.2" cy="44.3" r="0.1"/>
<circle fill="none" cx="27.4" cy="46.9" r="0.1"/>
<circle fill="none" cx="10.8" cy="43.9" r="0.1"/>
<circle fill="none" cx="1.3" cy="37.1" r="0.1"/>
<circle fill="none" cx="0" cy="25.1" r="0.1"/>
<circle fill="none" cx="0.4" cy="11.9" r="0.1"/>
<circle fill="none" cx="10.1" cy="3.1" r="0.1"/>
</g></g><rect stroke="none" stroke-width="0" fill="#FFFFFF" x="0" y="0" width="0" height="0" transform="translate(54.9,24.3)"/><path stroke="#000000" fill="none" d=""/><text font-family="OpenSansCondensedLight" font-size="14pt" fill="black" transform="translate(54.9,24.3)"/><rect stroke-width="0" fill="none" width="165.5" transform="translate(-55.3,57)"/><text font-family="OpenSansCondensedLight" font-size="14pt" fill="black" transform="translate(-55.3,57)" text-anchor="middle"><tspan x="82.8" y="16.8">ABR5</tspan></text><path stroke="#000000" fill="none" transform="translate(-55.3,57)" d="M 0 0"/></g><g transform="translate(413,214)"><g><g>
<g fill="#FFFFFF">
    <path d="M55,14.1C55,6.3,42.7,0,27.5,0S0,6.3,0,14.1l0,0v18.8c0,7.8,12.3,14.1,27.5,14.1s27.5,-6.3,27.5,-14.1V14.1"/>
</g>
<g stroke="#000000" stroke-dasharray="none">
    <path fill="none" d="M0,14.1L0,14.1v18.8c0,7.8,12.3,14.1,27.5,14.1s27.5,-6.3,27.5,-14.1V14.1"/>
    <ellipse fill="none" cx="27.5" cy="14.1" rx="27.5" ry="14.1"/>
</g>
<path fill="none" stroke="#000000" d="M46.3,11.4V4.8H32.9l5.5,2.7l-10.9,5.4l2.4,1.2l10.9,-5.4L46.3,11.4z"/>
<path fill="none" stroke="#000000" d="M27.5,7.5l-1.2,6l-12.1,0.6l5.5,-2.7L7.5,5.4l2.4,-1.2l12.1,6L27.5,7.5z"/>
<path fill="none" stroke="#000000" d="M27.5,20.7l1.2,-6l12.1,-0.6l-5.5,2.7l12.1,6l-2.4,1.2L33,18L27.5,20.7z"/>
<path fill="none" stroke="#000000" d="M8.7,16.8v6.6h13.4L16.6,20.7l10.9,-5.4L25.1,14.1l-10.9,5.4L8.7,16.8z"/>
<rect x="6" y="6.2" fill="none" width="42.7" height="34.3"/>
<circle fill="none" cx="27" cy="-0" r="0.1"/>
<circle fill="none" cx="44" cy="2.7" r="0.1"/>
<circle fill="none" cx="54.3" cy="10.8" r="0.1"/>
<circle fill="none" cx="55" cy="24.4" r="0.1"/>
<circle fill="none" cx="53.8" cy="37.2" r="0.1"/>
<circle fill="none" cx="43.2" cy="44.3" r="0.1"/>
<circle fill="none" cx="27.4" cy="46.9" r="0.1"/>
<circle fill="none" cx="10.8" cy="43.9" r="0.1"/>
<circle fill="none" cx="1.3" cy="37.1" r="0.1"/>
<circle fill="none" cx="0" cy="25.1" r="0.1"/>
<circle fill="none" cx="0.4" cy="11.9" r="0.1"/>
<circle fill="none" cx="10.1" cy="3.1" r="0.1"/>
</g></g><rect stroke="none" stroke-width="0" fill="#FFFFFF" x="0" y="0" width="0" height="0" transform="translate(54.9,24.3)"/><path stroke="#000000" fill="none" d=""/><text font-family="OpenSansCondensedLight" font-size="14pt" fill="black" transform="translate(54.9,24.3)"/><rect stroke-width="0" fill="none" width="165.5" transform="translate(-55.3,57)"/><text font-family="OpenSansCondensedLight" font-size="14pt" fill="black" transform="translate(-55.3,57)" text-anchor="middle"><tspan x="82.8" y="16.8">ABR6</tspan></text><path stroke="#000000" fill="none" transform="translate(-55.3,57)" d="M 0 0"/></g><g><path stroke="black" stroke-dasharray="none" d="M 459 484 451 441" fill="none"/><path fill="black" stroke="black" d="" transform="translate(459,484) scale(1,1) rotate(-100)"/><path fill="black" stroke="black" d="M 8 0 L 0 4 L 8 8 z" transform="translate(453.9,432.3) scale(1,1) rotate(80)"/><g><g label-idx="0" cursor="move" transform="translate(455, 462.5)"><rect fill="white" rx="3" ry="3" x="0" y="0" width="0" height="0"/><text text-anchor="middle" font-size="14pt" font-family="OpenSansCondensedLight" y="0.8em" display="none" xml:space="preserve" transform="translate(0,0)"/></g></g></g><g><path stroke="black" stroke-dasharray="none" d="M 440 435 451 479" fill="none"/><path fill="black" stroke="black" d="" transform="translate(440,435) scale(1,1) rotate(76)"/><path fill="black" stroke="black" d="M 8 0 L 0 4 L 8 8 z" transform="translate(449.1,488) scale(1,1) rotate(-104)"/><g><g label-idx="0" cursor="move" transform="translate(445.5, 457)"><rect fill="white" rx="3" ry="3" x="0" y="0" width="0" height="0"/><text text-anchor="middle" font-size="14pt" font-family="OpenSansCondensedLight" y="0.8em" display="none" xml:space="preserve" transform="translate(0,0)"/></g></g></g><g><path stroke="black" stroke-dasharray="none" d="M 461 400 C 469.8 385.8 478.5 371.7 489 366 C 499.5 360.3 511.8 363.2 524 366" fill="none"/><path fill="black" stroke="black" d="" transform="translate(461,400) scale(1,1) rotate(-50.5)"/><path fill="black" stroke="black" d="M 8 0 L 0 4 L 8 8 z" transform="translate(532,370) scale(1,1) rotate(-180)"/><g><g label-idx="0" cursor="move" transform="translate(485.4, 368.3)"><rect fill="white" rx="3" ry="3" x="0" y="0" width="0" height="0"/><text text-anchor="middle" font-size="14pt" font-family="OpenSansCondensedLight" y="0.8em" display="none" xml:space="preserve" transform="translate(0,0)"/></g></g></g><g><path stroke="black" stroke-dasharray="none" d="M 355 373 C 367.4 371.8 379.8 370.5 389 373 C 398.2 375.5 404.1 381.8 410 388" fill="none"/><path fill="black" stroke="black" d="" transform="translate(355,373) scale(1,1) rotate(0)"/><path fill="black" stroke="black" d="M 8 0 L 0 4 L 8 8 z" transform="translate(414.8,395.3) scale(1,1) rotate(-145.8)"/><g><g label-idx="0" cursor="move" transform="translate(385.1, 372.2)"><rect fill="white" rx="3" ry="3" x="0" y="0" width="0" height="0"/><text text-anchor="middle" font-size="14pt" font-family="OpenSansCondensedLight" y="0.8em" display="none" xml:space="preserve" transform="translate(0,0)"/></g></g></g><g><path stroke="black" stroke-dasharray="none" d="M 278 346 294 359" fill="none"/><path fill="black" stroke="black" d="" transform="translate(278,346) scale(1,1) rotate(39.3)"/><path fill="black" stroke="black" d="M 8 0 L 0 4 L 8 8 z" transform="translate(297.5,367.1) scale(1,1) rotate(-140.7)"/><g><g label-idx="0" cursor="move" transform="translate(286, 352.5)"><rect fill="white" rx="3" ry="3" x="0" y="0" width="0" height="0"/><text text-anchor="middle" font-size="14pt" font-family="OpenSansCondensedLight" y="0.8em" display="none" xml:space="preserve" transform="translate(0,0)"/></g></g></g><g><path stroke="black" stroke-dasharray="none" d="M 277 312 294 300" fill="none"/><path fill="black" stroke="black" d="" transform="translate(277,312) scale(1,1) rotate(-36.5)"/><path fill="black" stroke="black" d="M 8 0 L 0 4 L 8 8 z" transform="translate(302.4,298.2) scale(1,1) rotate(-216.5)"/><g><g label-idx="0" cursor="move" transform="translate(285.5, 306)"><rect fill="white" rx="3" ry="3" x="0" y="0" width="0" height="0"/><text text-anchor="middle" font-size="14pt" font-family="OpenSansCondensedLight" y="0.8em" display="none" xml:space="preserve" transform="translate(0,0)"/></g></g></g><g><path stroke="black" stroke-dasharray="none" d="M 296 290 272 305" fill="none"/><path fill="black" stroke="black" d="" transform="translate(296,290) scale(1,1) rotate(-211.5)"/><path fill="black" stroke="black" d="M 8 0 L 0 4 L 8 8 z" transform="translate(262.9,305.6) scale(1,1) rotate(-31.5)"/><g><g label-idx="0" cursor="move" transform="translate(284, 297.5)"><rect fill="white" rx="3" ry="3" x="0" y="0" width="0" height="0"/><text text-anchor="middle" font-size="14pt" font-family="OpenSansCondensedLight" y="0.8em" display="none" xml:space="preserve" transform="translate(0,0)"/></g></g></g><g><path stroke="black" stroke-dasharray="none" d="M 354 284 520 284" fill="none"/><path fill="black" stroke="black" d="" transform="translate(354,284) scale(1,1) rotate(0)"/><path fill="black" stroke="black" d="M 8 0 L 0 4 L 8 8 z" transform="translate(528,288) scale(1,1) rotate(-180)"/><g><g label-idx="0" cursor="move" transform="translate(437, 284)"><rect fill="white" rx="3" ry="3" x="0" y="0" width="0" height="0"/><text text-anchor="middle" font-size="14pt" font-family="OpenSansCondensedLight" y="0.8em" display="none" xml:space="preserve" transform="translate(0,0)"/></g></g></g><g><path stroke="black" stroke-dasharray="none" d="M 414 251 C 408.3 258.6 402.7 266.2 394 271 C 385.3 275.8 373.7 277.9 362 280" fill="none"/><path fill="black" stroke="black" d="" transform="translate(414,251) scale(1,1) rotate(-225)"/><path fill="black" stroke="black" d="M 8 0 L 0 4 L 8 8 z" transform="translate(352.9,278.1) scale(1,1) rotate(-15.4)"/><g><g label-idx="0" cursor="move" transform="translate(391.8, 272.1)"><rect fill="white" rx="3" ry="3" x="0" y="0" width="0" height="0"/><text text-anchor="middle" font-size="14pt" font-family="OpenSansCondensedLight" y="0.8em" display="none" xml:space="preserve" transform="translate(0,0)"/></g></g></g><g><path stroke="black" stroke-dasharray="none" d="M 387 166 418 210" fill="none"/><path fill="black" stroke="black" d="" transform="translate(387,166) scale(1,1) rotate(54.8)"/><path fill="black" stroke="black" d="M 8 0 L 0 4 L 8 8 z" transform="translate(419.7,219.3) scale(1,1) rotate(-125.2)"/><g><g label-idx="0" cursor="move" transform="translate(402.5, 188)"><rect fill="white" rx="3" ry="3" x="0" y="0" width="0" height="0"/><text text-anchor="middle" font-size="14pt" font-family="OpenSansCondensedLight" y="0.8em" display="none" xml:space="preserve" transform="translate(0,0)"/></g></g></g><g transform="translate(615,283)"><g><g>
<g stroke="#000000" stroke-dasharray="none">
    <line fill="none" x1="17" y1="0" x2="0" y2="16"/>
    <line fill="none" x1="0" y1="0" x2="17" y2="16"/>
</g>
<ellipse stroke="#000000" cx="8.5" cy="8" rx="6.5" ry="6.1"/>
<rect x="2" y="1.9" fill="none" width="13" height="12.2"/>
<circle fill="none" cx="8.5" cy="1.9" r="0.1"/>
<circle fill="none" cx="11.7" cy="2.7" r="0.1"/>
<circle fill="none" cx="14.1" cy="5" r="0.1"/>
<circle fill="none" cx="15" cy="7.9" r="0.1"/>
<circle fill="none" cx="14.1" cy="11" r="0.1"/>
<circle fill="none" cx="11.7" cy="13.3" r="0.1"/>
<circle fill="none" cx="8.5" cy="14.1" r="0.1"/>
<circle fill="none" cx="5.2" cy="13.3" r="0.1"/>
<circle fill="none" cx="2.9" cy="11" r="0.1"/>
<circle fill="none" cx="1.9" cy="7.9" r="0.1"/>
<circle fill="none" cx="2.9" cy="4.9" r="0.1"/>
<circle fill="none" cx="5.3" cy="2.7" r="0.1"/>
</g></g><rect stroke="none" stroke-width="0" fill="#FFFFFF" x="0" y="0" width="0" height="0" transform="translate(14.9,7.8)"/><path stroke="#000000" fill="none" d=""/><text font-family="OpenSansCondensedLight" font-size="14pt" fill="black" transform="translate(14.9,7.8)"/><rect stroke-width="0" fill="none" width="51" transform="translate(-17,-10)"/><text font-family="OpenSansCondensedLight" font-size="14pt" fill="black" transform="translate(-17,-10)" text-anchor="middle"><tspan x="25.5" y="-4.2"> </tspan></text><path stroke="#000000" fill="none" transform="translate(-17,-10)" d="M 0 0"/></g><g transform="translate(654,289)"><g><g>
<g stroke="#000000" stroke-dasharray="none">
    <line fill="none" x1="17" y1="0" x2="0" y2="16"/>
    <line fill="none" x1="0" y1="0" x2="17" y2="16"/>
</g>
<ellipse stroke="#000000" cx="8.5" cy="8" rx="6.5" ry="6.1"/>
<rect x="2" y="1.9" fill="none" width="13" height="12.2"/>
<circle fill="none" cx="8.5" cy="1.9" r="0.1"/>
<circle fill="none" cx="11.7" cy="2.7" r="0.1"/>
<circle fill="none" cx="14.1" cy="5" r="0.1"/>
<circle fill="none" cx="15" cy="7.9" r="0.1"/>
<circle fill="none" cx="14.1" cy="11" r="0.1"/>
<circle fill="none" cx="11.7" cy="13.3" r="0.1"/>
<circle fill="none" cx="8.5" cy="14.1" r="0.1"/>
<circle fill="none" cx="5.2" cy="13.3" r="0.1"/>
<circle fill="none" cx="2.9" cy="11" r="0.1"/>
<circle fill="none" cx="1.9" cy="7.9" r="0.1"/>
<circle fill="none" cx="2.9" cy="4.9" r="0.1"/>
<circle fill="none" cx="5.3" cy="2.7" r="0.1"/>
</g></g><rect stroke="none" stroke-width="0" fill="#FFFFFF" x="0" y="0" width="0" height="0" transform="translate(14.9,7.8)"/><path stroke="#000000" fill="none" d=""/><text font-family="OpenSansCondensedLight" font-size="14pt" fill="black" transform="translate(14.9,7.8)"/><rect stroke-width="0" fill="none" width="51" transform="translate(-17,-10)"/><text font-family="OpenSansCondensedLight" font-size="14pt" fill="black" transform="translate(-17,-10)" text-anchor="middle"><tspan x="25.5" y="-4.2"> </tspan></text><path stroke="#000000" fill="none" transform="translate(-17,-10)" d="M 0 0"/></g><g transform="translate(627,315)"><g><g>
<g stroke="#000000" stroke-dasharray="none">
    <line fill="none" x1="17" y1="0" x2="0" y2="16"/>
    <line fill="none" x1="0" y1="0" x2="17" y2="16"/>
</g>
<ellipse stroke="#000000" cx="8.5" cy="8" rx="6.5" ry="6.1"/>
<rect x="2" y="1.9" fill="none" width="13" height="12.2"/>
<circle fill="none" cx="8.5" cy="1.9" r="0.1"/>
<circle fill="none" cx="11.7" cy="2.7" r="0.1"/>
<circle fill="none" cx="14.1" cy="5" r="0.1"/>
<circle fill="none" cx="15" cy="7.9" r="0.1"/>
<circle fill="none" cx="14.1" cy="11" r="0.1"/>
<circle fill="none" cx="11.7" cy="13.3" r="0.1"/>
<circle fill="none" cx="8.5" cy="14.1" r="0.1"/>
<circle fill="none" cx="5.2" cy="13.3" r="0.1"/>
<circle fill="none" cx="2.9" cy="11" r="0.1"/>
<circle fill="none" cx="1.9" cy="7.9" r="0.1"/>
<circle fill="none" cx="2.9" cy="4.9" r="0.1"/>
<circle fill="none" cx="5.3" cy="2.7" r="0.1"/>
</g></g><rect stroke="none" stroke-width="0" fill="#FFFFFF" x="0" y="0" width="0" height="0" transform="translate(14.9,7.8)"/><path stroke="#000000" fill="none" d=""/><text font-family="OpenSansCondensedLight" font-size="14pt" fill="black" transform="translate(14.9,7.8)"/><rect stroke-width="0" fill="none" width="51" transform="translate(-17,-10)"/><text font-family="OpenSansCondensedLight" font-size="14pt" fill="black" transform="translate(-17,-10)" text-anchor="middle"><tspan x="25.5" y="-4.2"> </tspan></text><path stroke="#000000" fill="none" transform="translate(-17,-10)" d="M 0 0"/></g><g transform="translate(647,367)"><g><g>
<g stroke="#000000" stroke-dasharray="none">
    <line fill="none" x1="17" y1="0" x2="0" y2="16"/>
    <line fill="none" x1="0" y1="0" x2="17" y2="16"/>
</g>
<ellipse stroke="#000000" cx="8.5" cy="8" rx="6.5" ry="6.1"/>
<rect x="2" y="1.9" fill="none" width="13" height="12.2"/>
<circle fill="none" cx="8.5" cy="1.9" r="0.1"/>
<circle fill="none" cx="11.7" cy="2.7" r="0.1"/>
<circle fill="none" cx="14.1" cy="5" r="0.1"/>
<circle fill="none" cx="15" cy="7.9" r="0.1"/>
<circle fill="none" cx="14.1" cy="11" r="0.1"/>
<circle fill="none" cx="11.7" cy="13.3" r="0.1"/>
<circle fill="none" cx="8.5" cy="14.1" r="0.1"/>
<circle fill="none" cx="5.2" cy="13.3" r="0.1"/>
<circle fill="none" cx="2.9" cy="11" r="0.1"/>
<circle fill="none" cx="1.9" cy="7.9" r="0.1"/>
<circle fill="none" cx="2.9" cy="4.9" r="0.1"/>
<circle fill="none" cx="5.3" cy="2.7" r="0.1"/>
</g></g><rect stroke="none" stroke-width="0" fill="#FFFFFF" x="0" y="0" width="0" height="0" transform="translate(14.9,7.8)"/><path stroke="#000000" fill="none" d=""/><text font-family="OpenSansCondensedLight" font-size="14pt" fill="black" transform="translate(14.9,7.8)"/><rect stroke-width="0" fill="none" width="51" transform="translate(-17,-10)"/><text font-family="OpenSansCondensedLight" font-size="14pt" fill="black" transform="translate(-17,-10)" text-anchor="middle"><tspan x="25.5" y="-4.2"> </tspan></text><path stroke="#000000" fill="none" transform="translate(-17,-10)" d="M 0 0"/></g><g><path stroke="black" stroke-dasharray="none" d="M 587 378 642 378" fill="none"/><path fill="black" stroke="black" d="" transform="translate(587,378) scale(1,1) rotate(0)"/><path fill="black" stroke="black" d="M 8 0 L 0 4 L 8 8 z" transform="translate(650,382) scale(1,1) rotate(-180)"/><g><g label-idx="0" cursor="move" transform="translate(614.5, 378)"><rect fill="white" rx="3" ry="3" x="0" y="0" width="0" height="0"/><text text-anchor="middle" font-size="14pt" font-family="OpenSansCondensedLight" y="0.8em" display="none" xml:space="preserve" transform="translate(0,0)"/></g></g></g><g><path stroke="black" stroke-dasharray="none" d="M 661 372 716 349" fill="none"/><path fill="black" stroke="black" d="" transform="translate(661,372) scale(1,1) rotate(-22.8)"/><path fill="black" stroke="black" d="M 8 0 L 0 4 L 8 8 z" transform="translate(724.5,349.7) scale(1,1) rotate(-202.8)"/><g><g label-idx="0" cursor="move" transform="translate(688.5, 360.5)"><rect fill="white" rx="3" ry="3" x="0" y="0" width="0" height="0"/><text text-anchor="middle" font-size="14pt" font-family="OpenSansCondensedLight" y="0.8em" display="none" xml:space="preserve" transform="translate(0,0)"/></g></g></g><g><path stroke="black" stroke-dasharray="none" d="M 668 300 715 318" fill="none"/><path fill="black" stroke="black" d="" transform="translate(668,300) scale(1,1) rotate(21.3)"/><path fill="black" stroke="black" d="M 8 0 L 0 4 L 8 8 z" transform="translate(720.6,324.7) scale(1,1) rotate(-158.7)"/><g><g label-idx="0" cursor="move" transform="translate(691.5, 309)"><rect fill="white" rx="3" ry="3" x="0" y="0" width="0" height="0"/><text text-anchor="middle" font-size="14pt" font-family="OpenSansCondensedLight" y="0.8em" display="none" xml:space="preserve" transform="translate(0,0)"/></g></g></g><g><path stroke="black" stroke-dasharray="none" d="M 639 318 649 309" fill="none"/><path fill="black" stroke="black" d="" transform="translate(639,318) scale(1,1) rotate(-41.2)"/><path fill="black" stroke="black" d="M 8 0 L 0 4 L 8 8 z" transform="translate(657.6,307) scale(1,1) rotate(-221.2)"/><g><g label-idx="0" cursor="move" transform="translate(644, 313.5)"><rect fill="white" rx="3" ry="3" x="0" y="0" width="0" height="0"/><text text-anchor="middle" font-size="14pt" font-family="OpenSansCondensedLight" y="0.8em" display="none" xml:space="preserve" transform="translate(0,0)"/></g></g></g><g><path stroke="black" stroke-dasharray="none" d="M 623 297 631 310" fill="none"/><path fill="black" stroke="black" d="" transform="translate(623,297) scale(1,1) rotate(59)"/><path fill="black" stroke="black" d="M 8 0 L 0 4 L 8 8 z" transform="translate(631.6,319.1) scale(1,1) rotate(-121)"/><g><g label-idx="0" cursor="move" transform="translate(627, 303.5)"><rect fill="white" rx="3" ry="3" x="0" y="0" width="0" height="0"/><text text-anchor="middle" font-size="14pt" font-family="OpenSansCondensedLight" y="0.8em" display="none" xml:space="preserve" transform="translate(0,0)"/></g></g></g><g><path stroke="black" stroke-dasharray="none" d="M 583 283 606 288" fill="none"/><path fill="black" stroke="black" d="" transform="translate(583,283) scale(1,1) rotate(12.7)"/><path fill="black" stroke="black" d="M 8 0 L 0 4 L 8 8 z" transform="translate(613.1,293.9) scale(1,1) rotate(-167.3)"/><g><g label-idx="0" cursor="move" transform="translate(594.5, 285.5)"><rect fill="white" rx="3" ry="3" x="0" y="0" width="0" height="0"/><text text-anchor="middle" font-size="14pt" font-family="OpenSansCondensedLight" y="0.8em" display="none" xml:space="preserve" transform="translate(0,0)"/></g></g></g><g><path stroke="black" stroke-dasharray="5,5" d="M 630 292 662 297" fill="none"/><path fill="black" stroke="black" d="" transform="translate(630,292) scale(1,1) rotate(8.9)"/><path fill="black" stroke="black" d="" transform="translate(662,297) scale(1,1) rotate(-171.1)"/><g><g label-idx="0" cursor="move" transform="translate(646, 294.5)"><rect fill="white" rx="3" ry="3" x="0" y="0" width="0" height="0"/><text text-anchor="middle" font-size="14pt" font-family="OpenSansCondensedLight" y="0.8em" display="none" xml:space="preserve" transform="translate(0,0)"/></g></g></g></g><defs/></svg>