<svg xmlns="http://www.w3.org/2000/svg" xmlns:xlink="http://www.w3.org/1999/xlink" version="1.1" width="876.1" height="619.1" viewBox="4.9 45.9 876.1 619.1"><g><g transform="translate(5,46)"><g><g>
<path d="M871,0H0v573h871V0L871,0z" stroke="#000000" stroke-dasharray="none" fill="#FFFFFF"/>
<rect x="38.1" y="26.1" width="794.9" height="520.7" fill="none"/>
<circle fill="none" cx="435.5" cy="0" r="0.1"/>
<circle fill="none" cx="651.3" cy="0" r="0.1"/>
<circle fill="none" cx="871" cy="144.5" r="0.1"/>
<circle fill="none" cx="871" cy="286.5" r="0.1"/>
<circle fill="none" cx="871" cy="428.5" r="0.1"/>
<circle fill="none" cx="651.3" cy="573" r="0.1"/>
<circle fill="none" cx="435.5" cy="573" r="0.1"/>
<circle fill="none" cx="219.7" cy="573" r="0.1"/>
<circle fill="none" cx="0" cy="428.5" r="0.1"/>
<circle fill="none" cx="0" cy="286.5" r="0.1"/>
<circle fill="none" cx="0" cy="144.5" r="0.1"/>
<circle fill="none" cx="219.7" cy="0" r="0.1"/>
</g></g><rect stroke="none" stroke-width="0" fill="#FFFFFF" x="0" y="0" width="0" height="0" transform="translate(870.9,286.4)"/><path stroke="#000000" fill="none" d=""/><text font-family="OpenSansCondensedLight" font-size="14pt" fill="black" transform="translate(870.9,286.4)"/><rect stroke-width="0" fill="none" width="794.9" height="520.7" transform="translate(38.1,26.1)"/><text font-family="OpenSansCondensedLight" font-size="14pt" fill="black" transform="translate(38.1,26.1)" text-anchor="middle"><tspan x="397.4" y="266.7"> </tspan></text><path stroke="#000000" fill="none" transform="translate(38.1,26.1)" d="M 0 0"/></g><g transform="translate(55,509)"><g><g>
<path d="M171,0H0v110h171V0L171,0z" stroke="#000000" stroke-dasharray="none" fill="#FFFFFF"/>
<rect x="7.5" y="5" width="156.1" height="100" fill="none"/>
<circle fill="none" cx="85.5" cy="0" r="0.1"/>
<circle fill="none" cx="127.9" cy="0" r="0.1"/>
<circle fill="none" cx="171" cy="27.7" r="0.1"/>
<circle fill="none" cx="171" cy="55" r="0.1"/>
<circle fill="none" cx="171" cy="82.3" r="0.1"/>
<circle fill="none" cx="127.9" cy="110" r="0.1"/>
<circle fill="none" cx="85.5" cy="110" r="0.1"/>
<circle fill="none" cx="43.1" cy="110" r="0.1"/>
<circle fill="none" cx="0" cy="82.3" r="0.1"/>
<circle fill="none" cx="0" cy="55" r="0.1"/>
<circle fill="none" cx="0" cy="27.7" r="0.1"/>
<circle fill="none" cx="43.1" cy="0" r="0.1"/>
</g></g><rect stroke="none" stroke-width="0" fill="#FFFFFF" x="0" y="0" width="0" height="0" transform="translate(170.9,54.9)"/><path stroke="#000000" fill="none" d=""/><text font-family="OpenSansCondensedLight" font-size="14pt" fill="black" transform="translate(170.9,54.9)"/><rect stroke-width="0" fill="none" width="156.1" height="100" transform="translate(7.5,5)"/><text font-family="OpenSansCondensedLight" font-size="14pt" fill="black" transform="translate(7.5,5)" text-anchor="middle"><tspan x="78" y="45.8">NETWORK</tspan><tspan x="78" y="66.8">INTERFACE 202</tspan></text><path stroke="#000000" fill="none" transform="translate(7.5,5)" d="M 117 69 145 69"/></g><g transform="translate(291,509)"><g><g>
<path d="M171,0H0v110h171V0L171,0z" stroke="#000000" stroke-dasharray="none" fill="#FFFFFF"/>
<rect x="7.5" y="5" width="156.1" height="100" fill="none"/>
<circle fill="none" cx="85.5" cy="0" r="0.1"/>
<circle fill="none" cx="127.9" cy="0" r="0.1"/>
<circle fill="none" cx="171" cy="27.7" r="0.1"/>
<circle fill="none" cx="171" cy="55" r="0.1"/>
<circle fill="none" cx="171" cy="82.3" r="0.1"/>
<circle fill="none" cx="127.9" cy="110" r="0.1"/>
<circle fill="none" cx="85.5" cy="110" r="0.1"/>
<circle fill="none" cx="43.1" cy="110" r="0.1"/>
<circle fill="none" cx="0" cy="82.3" r="0.1"/>
<circle fill="none" cx="0" cy="55" r="0.1"/>
<circle fill="none" cx="0" cy="27.7" r="0.1"/>
<circle fill="none" cx="43.1" cy="0" r="0.1"/>
</g></g><rect stroke="none" stroke-width="0" fill="#FFFFFF" x="0" y="0" width="0" height="0" transform="translate(170.9,54.9)"/><path stroke="#000000" fill="none" d=""/><text font-family="OpenSansCondensedLight" font-size="14pt" fill="black" transform="translate(170.9,54.9)"/><rect stroke-width="0" fill="none" width="156.1" height="100" transform="translate(7.5,5)"/><text font-family="OpenSansCondensedLight" font-size="14pt" fill="black" transform="translate(7.5,5)" text-anchor="middle"><tspan x="78" y="45.8">NETWORK</tspan><tspan x="78" y="66.8">INTERFACE 202</tspan></text><path stroke="#000000" fill="none" transform="translate(7.5,5)" d="M 117 69 145 69"/></g><g transform="translate(663,508)"><g><g>
<path d="M171,0H0v110h171V0L171,0z" stroke="#000000" stroke-dasharray="none" fill="#FFFFFF"/>
<rect x="7.5" y="5" width="156.1" height="100" fill="none"/>
<circle fill="none" cx="85.5" cy="0" r="0.1"/>
<circle fill="none" cx="127.9" cy="0" r="0.1"/>
<circle fill="none" cx="171" cy="27.7" r="0.1"/>
<circle fill="none" cx="171" cy="55" r="0.1"/>
<circle fill="none" cx="171" cy="82.3" r="0.1"/>
<circle fill="none" cx="127.9" cy="110" r="0.1"/>
<circle fill="none" cx="85.5" cy="110" r="0.1"/>
<circle fill="none" cx="43.1" cy="110" r="0.1"/>
<circle fill="none" cx="0" cy="82.3" r="0.1"/>
<circle fill="none" cx="0" cy="55" r="0.1"/>
<circle fill="none" cx="0" cy="27.7" r="0.1"/>
<circle fill="none" cx="43.1" cy="0" r="0.1"/>
</g></g><rect stroke="none" stroke-width="0" fill="#FFFFFF" x="0" y="0" width="0" height="0" transform="translate(170.9,54.9)"/><path stroke="#000000" fill="none" d=""/><text font-family="OpenSansCondensedLight" font-size="14pt" fill="black" transform="translate(170.9,54.9)"/><rect stroke-width="0" fill="none" width="156.1" height="100" transform="translate(7.5,5)"/><text font-family="OpenSansCondensedLight" font-size="14pt" fill="black" transform="translate(7.5,5)" text-anchor="middle"><tspan x="78" y="45.8">NETWORK</tspan><tspan x="78" y="66.8">INTERFACE 202</tspan></text><path stroke="#000000" fill="none" transform="translate(7.5,5)" d="M 117 69 145 69"/></g><g transform="translate(39,361)"><g><g>
<path d="M159,0H0v80h159V0L159,0z" stroke="#000000" stroke-dasharray="none" fill="#FFFFFF"/>
<rect x="7" y="3.6" width="145.1" height="72.7" fill="none"/>
<circle fill="none" cx="79.5" cy="0" r="0.1"/>
<circle fill="none" cx="118.9" cy="0" r="0.1"/>
<circle fill="none" cx="159" cy="20.2" r="0.1"/>
<circle fill="none" cx="159" cy="40" r="0.1"/>
<circle fill="none" cx="159" cy="59.8" r="0.1"/>
<circle fill="none" cx="118.9" cy="80" r="0.1"/>
<circle fill="none" cx="79.5" cy="80" r="0.1"/>
<circle fill="none" cx="40.1" cy="80" r="0.1"/>
<circle fill="none" cx="0" cy="59.8" r="0.1"/>
<circle fill="none" cx="0" cy="40" r="0.1"/>
<circle fill="none" cx="0" cy="20.2" r="0.1"/>
<circle fill="none" cx="40.1" cy="0" r="0.1"/>
</g></g><rect stroke="none" stroke-width="0" fill="#FFFFFF" x="0" y="0" width="0" height="0" transform="translate(158.9,39.9)"/><path stroke="#000000" fill="none" d=""/><text font-family="OpenSansCondensedLight" font-size="14pt" fill="black" transform="translate(158.9,39.9)"/><rect stroke-width="0" fill="none" width="145.1" height="72.7" transform="translate(7,3.6)"/><text font-family="OpenSansCondensedLight" font-size="14pt" fill="black" transform="translate(7,3.6)" text-anchor="middle"><tspan x="72.6" y="32.2">PROCESSOR</tspan><tspan x="72.6" y="53.2">204</tspan></text><path stroke="#000000" fill="none" transform="translate(7,3.6)" d="M 58.6 55 86.5 55"/></g><g transform="translate(27,480)"><g><g>
<g fill="#FFFFFF">
    <rect y="0" width="820" height="8"/>
</g>
<g stroke="#000000" stroke-dasharray="none">
    <line fill="none" stroke-linejoin="round" x1="0" y1="8" x2="810.6" y2="8"/>
</g>
<rect x="32.1" y="0.3" fill="none" width="755.8" height="7.4"/>
<circle fill="none" cx="435.7" cy="8" r="0.1"/>
<circle fill="none" cx="573.7" cy="8" r="0.1"/>
<circle fill="none" cx="711.7" cy="8" r="0.1"/>
<circle fill="none" cx="780.7" cy="8" r="0.1"/>
<circle fill="none" cx="642.6" cy="8" r="0.1"/>
<circle fill="none" cx="504.6" cy="8" r="0.1"/>
<circle fill="none" cx="366.6" cy="8" r="0.1"/>
<circle fill="none" cx="228.6" cy="8" r="0.1"/>
<circle fill="none" cx="90.7" cy="8" r="0.1"/>
<circle fill="none" cx="21.6" cy="8" r="0.1"/>
<circle fill="none" cx="159.6" cy="8" r="0.1"/>
<circle fill="none" cx="297.7" cy="8" r="0.1"/>
</g></g><rect stroke="none" stroke-width="1" fill="#FFFFFF" x="0" y="0" width="40" height="20" transform="translate(514.5,49.9)"/><path stroke="#000000" fill="none" d="M504.6,8 C497.1,36 536.3,21.9 528.8 49.9"/><text font-family="OpenSansCondensedLight" font-size="14pt" fill="black" transform="translate(514.5,49.9)" text-anchor="middle"><tspan x="20" y="16.3">206</tspan></text><rect stroke-width="0" fill="none" width="755.8" height="7.4" transform="translate(32.1,0.3)"/><text font-family="OpenSansCondensedLight" font-size="14pt" fill="black" transform="translate(32.1,0.3)" text-anchor="middle"><tspan x="377.9" y="10">BUS</tspan></text><path stroke="#000000" fill="none" transform="translate(32.1,0.3)" d="M 0 0"/></g><g><path stroke="black" stroke-dasharray="none" d="M 118 441 118 488" fill="none"/><path fill="black" stroke="black" d="" transform="translate(118,441) scale(1,1) rotate(-270)"/><path fill="black" stroke="black" d="" transform="translate(118,488) scale(1,1) rotate(-90)"/><g><g label-idx="0" cursor="move" transform="translate(118, 464.5)"><rect fill="white" rx="3" ry="3" x="0" y="0" width="0" height="0"/><text text-anchor="middle" font-size="14pt" font-family="OpenSansCondensedLight" y="0.8em" display="none" xml:space="preserve" transform="translate(0,0)"/></g></g></g><g><path stroke="black" stroke-dasharray="none" d="M 187 509 187 488" fill="none"/><path fill="black" stroke="black" d="" transform="translate(187,509) scale(1,1) rotate(-90)"/><path fill="black" stroke="black" d="" transform="translate(187,488) scale(1,1) rotate(-270)"/><g><g label-idx="0" cursor="move" transform="translate(187, 498.5)"><rect fill="white" rx="3" ry="3" x="0" y="0" width="0" height="0"/><text text-anchor="middle" font-size="14pt" font-family="OpenSansCondensedLight" y="0.8em" display="none" xml:space="preserve" transform="translate(0,0)"/></g></g></g><g><path stroke="black" stroke-dasharray="none" d="M 349 510 349 487" fill="none"/><path fill="black" stroke="black" d="" transform="translate(349,510) scale(1,1) rotate(-90)"/><path fill="black" stroke="black" d="" transform="translate(349,487) scale(1,1) rotate(-270)"/><g><g label-idx="0" cursor="move" transform="translate(349, 498.5)"><rect fill="white" rx="3" ry="3" x="0" y="0" width="0" height="0"/><text text-anchor="middle" font-size="14pt" font-family="OpenSansCondensedLight" y="0.8em" display="none" xml:space="preserve" transform="translate(0,0)"/></g></g></g><g><path stroke="black" stroke-dasharray="none" d="M 704 508 704 487" fill="none"/><path fill="black" stroke="black" d="" transform="translate(704,508) scale(1,1) rotate(-90)"/><path fill="black" stroke="black" d="" transform="translate(704,487) scale(1,1) rotate(-270)"/><g><g label-idx="0" cursor="move" transform="translate(704, 497.5)"><rect fill="white" rx="3" ry="3" x="0" y="0" width="0" height="0"/><text text-anchor="middle" font-size="14pt" font-family="OpenSansCondensedLight" y="0.8em" display="none" xml:space="preserve" transform="translate(0,0)"/></g></g></g><g transform="translate(259.5,98.5)"><g><g>
<path d="M573,0H0v352h573V0L573,0z" stroke="#000000" stroke-dasharray="none" fill="#FFFFFF"/>
<rect x="25.1" y="16" width="522.9" height="319.9" fill="none"/>
<circle fill="none" cx="286.5" cy="0" r="0.1"/>
<circle fill="none" cx="428.5" cy="0" r="0.1"/>
<circle fill="none" cx="573" cy="88.8" r="0.1"/>
<circle fill="none" cx="573" cy="176" r="0.1"/>
<circle fill="none" cx="573" cy="263.2" r="0.1"/>
<circle fill="none" cx="428.5" cy="352" r="0.1"/>
<circle fill="none" cx="286.5" cy="352" r="0.1"/>
<circle fill="none" cx="144.6" cy="352" r="0.1"/>
<circle fill="none" cx="0" cy="263.2" r="0.1"/>
<circle fill="none" cx="0" cy="176" r="0.1"/>
<circle fill="none" cx="0" cy="88.8" r="0.1"/>
<circle fill="none" cx="144.6" cy="0" r="0.1"/>
</g></g><rect stroke="none" stroke-width="0" fill="#FFFFFF" x="0" y="0" width="0" height="0" transform="translate(572.9,175.9)"/><path stroke="#000000" fill="none" d=""/><text font-family="OpenSansCondensedLight" font-size="14pt" fill="black" transform="translate(572.9,175.9)"/><rect stroke-width="0" fill="none" width="522.9" height="319.9" transform="translate(25.1,16)"/><text font-family="OpenSansCondensedLight" font-size="14pt" fill="black" transform="translate(25.1,16)" text-anchor="middle"><tspan x="261.5" y="16.8">MEMORY 208</tspan></text><path stroke="#000000" fill="none" transform="translate(25.1,16)" d="M 291.3 19 319.3 19"/></g><g><path stroke="black" stroke-dasharray="none" d="M 601 451 601 488" fill="none"/><path fill="black" stroke="black" d="" transform="translate(601,451) scale(1,1) rotate(-270)"/><path fill="black" stroke="black" d="" transform="translate(601,488) scale(1,1) rotate(-90)"/><g><g label-idx="0" cursor="move" transform="translate(601, 469.5)"><rect fill="white" rx="3" ry="3" x="0" y="0" width="0" height="0"/><text text-anchor="middle" font-size="14pt" font-family="OpenSansCondensedLight" y="0.8em" display="none" xml:space="preserve" transform="translate(0,0)"/></g></g></g><g transform="translate(307,158)"><g><g>
<path d="M45.2,0c-9.8,0,-18,6.6,-21,16C10.6,17.7,0,30,0,45.2c0,16.2,12.2,29.4,27.1,29.4c0.8,0,1.6,0,2.3,-0.2c2.6,9.6,10.6,16.6,20.5,16.6c8,0,15.1,-4.9,18.6,-12.1c3.7,4.2,9,6.8,14.9,6.8c9.2,0,17.1,-6.4,19.8,-15.4c0.2,0,0.2,0,0.4,0c12.3,0,22.3,-10.9,22.3,-24.3s-10,-24.3,-22.4,-24.3c-2.4,0,-4.5,0.4,-6.5,1.1c-2,-9.2,-9.6,-16,-18.6,-16c-5.3,0,-10,2.3,-13.6,6.2C61.2,5.3,53.8,0,45.2,0L45.2,0z" stroke="#000000" stroke-dasharray="none" fill="#FFFFFF"/>
<rect x="11.4" y="28.3" width="101.1" height="34.5" fill="none"/>
<circle fill="none" cx="64.9" cy="13" r="0.1"/>
<circle fill="none" cx="82.8" cy="7.3" r="0.1"/>
<circle fill="none" cx="97.2" cy="22.8" r="0.1"/>
<circle fill="none" cx="126" cy="45.3" r="0.1"/>
<circle fill="none" cx="103.3" cy="70.3" r="0.1"/>
<circle fill="none" cx="85" cy="85.6" r="0.1"/>
<circle fill="none" cx="68.5" cy="78.9" r="0.1"/>
<circle fill="none" cx="49.2" cy="91" r="0.1"/>
<circle fill="none" cx="0" cy="45.2" r="0.1"/>
<circle fill="none" cx="29.4" cy="74.4" r="0.1"/>
<circle fill="none" cx="24.1" cy="16" r="0.1"/>
<circle fill="none" cx="45.1" cy="0" r="0.1"/>
</g></g><rect stroke="none" stroke-width="0" fill="#FFFFFF" x="0" y="0" width="0" height="0" transform="translate(125.9,45.2)"/><path stroke="#000000" fill="none" d=""/><text font-family="OpenSansCondensedLight" font-size="14pt" fill="black" transform="translate(125.9,45.2)"/><rect stroke-width="0" fill="none" width="101.1" height="34.5" transform="translate(11.4,28.3)"/><text font-family="OpenSansCondensedLight" font-size="14pt" fill="black" transform="translate(11.4,28.3)" text-anchor="middle"><tspan x="50.5" y="16.8">PCC/PCE</tspan><tspan x="50.5" y="37.8">210</tspan></text><path stroke="#000000" fill="none" transform="translate(11.4,28.3)" d="M 36.5 40 64.5 40"/></g><g transform="translate(461,161)"><g><g>
<path d="M50.5,0c-10.9,0,-20.2,7.3,-23.5,17.6C11.9,19.4,0,33,0,49.7c0,17.8,13.6,32.3,30.3,32.3c0.8,0,1.8,0,2.6,-0.2c2.9,10.6,11.9,18.3,22.9,18.3c9,0,16.9,-5.4,20.8,-13.3c4.2,4.7,10.1,7.5,16.7,7.5c10.3,0,19.1,-7,22.2,-16.9c0.2,0,0.2,0,0.5,0c13.8,0,25,-11.9,25,-26.7s-11.2,-26.7,-25.1,-26.7c-2.7,0,-5.1,0.5,-7.2,1.2c-2.2,-10.1,-10.7,-17.6,-20.8,-17.6c-5.9,0,-11.2,2.6,-15.2,6.8C68.5,5.8,60.2,0,50.5,0L50.5,0z" stroke="#000000" stroke-dasharray="none" fill="#FFFFFF"/>
<rect x="12.8" y="31.1" width="113.1" height="37.9" fill="none"/>
<circle fill="none" cx="72.7" cy="14.2" r="0.1"/>
<circle fill="none" cx="92.6" cy="8.1" r="0.1"/>
<circle fill="none" cx="108.7" cy="25" r="0.1"/>
<circle fill="none" cx="141" cy="49.7" r="0.1"/>
<circle fill="none" cx="115.5" cy="77.3" r="0.1"/>
<circle fill="none" cx="95.1" cy="94.1" r="0.1"/>
<circle fill="none" cx="76.7" cy="86.7" r="0.1"/>
<circle fill="none" cx="55.1" cy="100" r="0.1"/>
<circle fill="none" cx="0" cy="49.7" r="0.1"/>
<circle fill="none" cx="32.9" cy="81.7" r="0.1"/>
<circle fill="none" cx="27" cy="17.6" r="0.1"/>
<circle fill="none" cx="50.5" cy="0" r="0.1"/>
</g></g><rect stroke="none" stroke-width="0" fill="#FFFFFF" x="0" y="0" width="0" height="0" transform="translate(140.9,49.6)"/><path stroke="#000000" fill="none" d=""/><text font-family="OpenSansCondensedLight" font-size="14pt" fill="black" transform="translate(140.9,49.6)"/><rect stroke-width="0" fill="none" width="113.1" height="37.9" transform="translate(12.8,31.1)"/><text font-family="OpenSansCondensedLight" font-size="14pt" fill="black" transform="translate(12.8,31.1)" text-anchor="middle"><tspan x="56.6" y="16.8">ROUTING</tspan><tspan x="56.6" y="37.8">SERVICES</tspan><tspan x="56.6" y="58.8">212</tspan></text><path stroke="#000000" fill="none" transform="translate(12.8,31.1)" d="M 42.6 61 70.6 61"/></g><g transform="translate(619,158)"><g><g>
<path d="M50.2,0c-10.9,0,-20,7.4,-23.3,17.9C11.8,19.8,0,33.6,0,50.6c0,18.1,13.5,32.9,30.1,32.9c0.8,0,1.7,0,2.6,-0.2c2.9,10.8,11.8,18.6,22.8,18.6c8.9,0,16.8,-5.5,20.7,-13.6c4.1,4.7,10,7.7,16.5,7.7c10.2,0,18.9,-7.2,22.1,-17.2c0.2,0,0.2,0,0.5,0c13.7,0,24.8,-12.2,24.8,-27.2s-11.1,-27.3,-24.9,-27.3c-2.7,0,-5,0.5,-7.2,1.2c-2.2,-10.3,-10.7,-17.9,-20.7,-17.9c-5.9,0,-11.1,2.6,-15.1,6.9C68,5.9,59.8,0,50.2,0L50.2,0z" stroke="#000000" stroke-dasharray="none" fill="#FFFFFF"/>
<rect x="12.7" y="31.7" width="112.3" height="38.7" fill="none"/>
<circle fill="none" cx="72.2" cy="14.5" r="0.1"/>
<circle fill="none" cx="92" cy="8.2" r="0.1"/>
<circle fill="none" cx="108" cy="25.5" r="0.1"/>
<circle fill="none" cx="140" cy="50.7" r="0.1"/>
<circle fill="none" cx="114.7" cy="78.9" r="0.1"/>
<circle fill="none" cx="94.4" cy="96" r="0.1"/>
<circle fill="none" cx="76.1" cy="88.4" r="0.1"/>
<circle fill="none" cx="54.7" cy="102" r="0.1"/>
<circle fill="none" cx="0" cy="50.6" r="0.1"/>
<circle fill="none" cx="32.7" cy="83.4" r="0.1"/>
<circle fill="none" cx="26.8" cy="17.9" r="0.1"/>
<circle fill="none" cx="50.1" cy="0" r="0.1"/>
</g></g><rect stroke="none" stroke-width="0" fill="#FFFFFF" x="0" y="0" width="0" height="0" transform="translate(139.9,50.6)"/><path stroke="#000000" fill="none" d=""/><text font-family="OpenSansCondensedLight" font-size="14pt" fill="black" transform="translate(139.9,50.6)"/><rect stroke-width="0" fill="none" width="112.3" height="38.7" transform="translate(12.7,31.7)"/><text font-family="OpenSansCondensedLight" font-size="14pt" fill="black" transform="translate(12.7,31.7)" text-anchor="middle"><tspan x="56.2" y="16.8">RSVP</tspan><tspan x="56.2" y="37.8">SERVICES</tspan><tspan x="56.2" y="58.8">214</tspan></text><path stroke="#000000" fill="none" transform="translate(12.7,31.7)" d="M 42.2 61 70.2 61"/></g><g transform="translate(294,271)"><g><g>
<path d="M79.6,0c-17.2,0,-31.8,11.2,-37,26.9C18.7,29.8,0,50.5,0,76c0,27.2,21.4,49.4,47.7,49.4c1.3,0,2.8,0,4.1,-0.3c4.6,16.1,18.8,27.9,36.1,27.9c14.1,0,26.7,-8.3,32.8,-20.4c6.6,7.1,15.9,11.5,26.2,11.5c16.2,0,30,-10.7,35,-25.8c0.3,0,0.3,0,0.7,0c21.7,0,39.4,-18.3,39.4,-40.8s-17.6,-40.9,-39.5,-40.9c-4.2,0,-8,0.7,-11.4,1.8c-3.5,-15.4,-16.9,-26.9,-32.8,-26.9c-9.3,0,-17.6,3.9,-23.9,10.4C107.9,8.9,94.7,0,79.6,0L79.6,0z" stroke="#000000" stroke-dasharray="none" fill="#FFFFFF"/>
<rect x="20.2" y="47.6" width="178.1" height="58" fill="none"/>
<circle fill="none" cx="114.4" cy="21.8" r="0.1"/>
<circle fill="none" cx="145.8" cy="12.3" r="0.1"/>
<circle fill="none" cx="171.2" cy="38.3" r="0.1"/>
<circle fill="none" cx="222" cy="76.1" r="0.1"/>
<circle fill="none" cx="181.9" cy="118.3" r="0.1"/>
<circle fill="none" cx="149.7" cy="144" r="0.1"/>
<circle fill="none" cx="120.7" cy="132.6" r="0.1"/>
<circle fill="none" cx="86.7" cy="153" r="0.1"/>
<circle fill="none" cx="0" cy="76" r="0.1"/>
<circle fill="none" cx="51.8" cy="125.1" r="0.1"/>
<circle fill="none" cx="42.5" cy="26.9" r="0.1"/>
<circle fill="none" cx="79.5" cy="0" r="0.1"/>
</g></g><rect stroke="none" stroke-width="0" fill="#FFFFFF" x="0" y="0" width="0" height="0" transform="translate(221.9,76)"/><path stroke="#000000" fill="none" d=""/><text font-family="OpenSansCondensedLight" font-size="14pt" fill="black" transform="translate(221.9,76)"/><rect stroke-width="0" fill="none" width="178.1" height="58" transform="translate(20.2,47.6)"/><text font-family="OpenSansCondensedLight" font-size="14pt" fill="black" transform="translate(20.2,47.6)" text-anchor="middle"><tspan x="89.1" y="16.8">RIB 216</tspan></text><path stroke="#000000" fill="none" transform="translate(20.2,47.6)" d="M 92.9 19 120.9 19"/></g><g transform="translate(326,341)"><g><g>
<path d="M151,0H0v43h151V0L151,0z" stroke="#000000" stroke-dasharray="none" fill="#FFFFFF"/>
<rect x="6.6" y="2" width="137.8" height="39.1" fill="none"/>
<circle fill="none" cx="75.5" cy="0" r="0.1"/>
<circle fill="none" cx="112.9" cy="0" r="0.1"/>
<circle fill="none" cx="151" cy="10.8" r="0.1"/>
<circle fill="none" cx="151" cy="21.5" r="0.1"/>
<circle fill="none" cx="151" cy="32.2" r="0.1"/>
<circle fill="none" cx="112.9" cy="43" r="0.1"/>
<circle fill="none" cx="75.5" cy="43" r="0.1"/>
<circle fill="none" cx="38.1" cy="43" r="0.1"/>
<circle fill="none" cx="0" cy="32.2" r="0.1"/>
<circle fill="none" cx="0" cy="21.5" r="0.1"/>
<circle fill="none" cx="0" cy="10.8" r="0.1"/>
<circle fill="none" cx="38.1" cy="0" r="0.1"/>
</g></g><rect stroke="none" stroke-width="0" fill="#FFFFFF" x="0" y="0" width="0" height="0" transform="translate(150.9,21.4)"/><path stroke="#000000" fill="none" d=""/><text font-family="OpenSansCondensedLight" font-size="14pt" fill="black" transform="translate(150.9,21.4)"/><rect stroke-width="0" fill="none" width="137.8" height="39.1" transform="translate(6.6,2)"/><text font-family="OpenSansCondensedLight" font-size="14pt" fill="black" transform="translate(6.6,2)" text-anchor="middle"><tspan x="68.9" y="15.3">ROUTING</tspan><tspan x="68.9" y="36.3">TABLE 218</tspan></text><path stroke="#000000" fill="none" transform="translate(6.6,2)" d="M 86.6 38 114.5 38"/></g><g transform="translate(536,299)"><g><g>
<path d="M54.4,0c-11.8,0,-21.7,10,-25.3,24.2C12.8,26.8,0,45.5,0,68.4c0,24.5,14.6,44.5,32.6,44.5c0.9,0,1.9,0,2.8,-0.3c3.2,14.5,12.8,25.2,24.7,25.2c9.7,0,18.2,-7.5,22.4,-18.4c4.5,6.4,10.9,10.3,17.9,10.3c11.1,0,20.5,-9.7,23.9,-23.3c0.2,0,0.2,0,0.5,0c14.9,0,26.9,-16.5,26.9,-36.8s-12.1,-36.9,-27,-36.9c-2.9,0,-5.5,0.7,-7.8,1.6c-2.4,-13.9,-11.6,-24.2,-22.4,-24.2c-6.4,0,-12.1,3.5,-16.3,9.4C73.7,8,64.8,0,54.4,0L54.4,0z" stroke="#000000" stroke-dasharray="none" fill="#FFFFFF"/>
<rect x="13.8" y="42.9" width="121.7" height="52.3" fill="none"/>
<circle fill="none" cx="78.2" cy="19.6" r="0.1"/>
<circle fill="none" cx="99.7" cy="11.1" r="0.1"/>
<circle fill="none" cx="117" cy="34.5" r="0.1"/>
<circle fill="none" cx="151.7" cy="68.5" r="0.1"/>
<circle fill="none" cx="124.3" cy="106.6" r="0.1"/>
<circle fill="none" cx="102.3" cy="129.7" r="0.1"/>
<circle fill="none" cx="82.5" cy="119.5" r="0.1"/>
<circle fill="none" cx="59.3" cy="137.8" r="0.1"/>
<circle fill="none" cx="0" cy="68.4" r="0.1"/>
<circle fill="none" cx="35.4" cy="112.7" r="0.1"/>
<circle fill="none" cx="29.1" cy="24.2" r="0.1"/>
<circle fill="none" cx="54.3" cy="0" r="0.1"/>
</g></g><rect stroke="none" stroke-width="0" fill="#FFFFFF" x="0" y="0" width="0" height="0" transform="translate(151.6,68.4)"/><path stroke="#000000" fill="none" d=""/><text font-family="OpenSansCondensedLight" font-size="14pt" fill="black" transform="translate(151.6,68.4)"/><rect stroke-width="0" fill="none" width="121.7" height="52.3" transform="translate(13.8,42.9)"/><text font-family="OpenSansCondensedLight" font-size="14pt" fill="black" transform="translate(13.8,42.9)" text-anchor="middle"><tspan x="60.9" y="11.4">ROUTER</tspan><tspan x="60.9" y="32.4">OPERATING</tspan><tspan x="60.9" y="53.4">SYSTEM 220</tspan></text><path stroke="#000000" fill="none" transform="translate(13.8,42.9)" d="M 86 56 114 56"/></g><g transform="translate(696,280)"><g><g>
<path d="M43,0c-9.3,0,-17.2,8.2,-20,19.9C10.1,22,0,37.3,0,56.1c0,20.1,11.6,36.5,25.8,36.5c0.7,0,1.5,0,2.2,-0.2c2.5,11.9,10.1,20.6,19.5,20.6c7.6,0,14.4,-6.1,17.7,-15.1c3.5,5.3,8.6,8.5,14.2,8.5c8.8,0,16.2,-7.9,18.9,-19.1c0.2,0,0.2,0,0.4,0c11.7,0,21.3,-13.5,21.3,-30.1s-9.5,-30.2,-21.3,-30.2c-2.3,0,-4.3,0.6,-6.1,1.3c-1.9,-11.4,-9.1,-19.9,-17.7,-19.9c-5,0,-9.5,2.9,-12.9,7.7C58.3,6.6,51.2,0,43,0L43,0z" stroke="#000000" stroke-dasharray="none" fill="#FFFFFF"/>
<rect x="10.9" y="35.2" width="96.3" height="42.9" fill="none"/>
<circle fill="none" cx="61.9" cy="16.1" r="0.1"/>
<circle fill="none" cx="78.8" cy="9.1" r="0.1"/>
<circle fill="none" cx="92.5" cy="28.3" r="0.1"/>
<circle fill="none" cx="120" cy="56.2" r="0.1"/>
<circle fill="none" cx="98.3" cy="87.4" r="0.1"/>
<circle fill="none" cx="80.9" cy="106.3" r="0.1"/>
<circle fill="none" cx="65.2" cy="97.9" r="0.1"/>
<circle fill="none" cx="46.9" cy="113" r="0.1"/>
<circle fill="none" cx="0" cy="56.1" r="0.1"/>
<circle fill="none" cx="28" cy="92.4" r="0.1"/>
<circle fill="none" cx="23" cy="19.9" r="0.1"/>
<circle fill="none" cx="43" cy="0" r="0.1"/>
</g></g><rect stroke="none" stroke-width="0" fill="#FFFFFF" x="0" y="0" width="0" height="0" transform="translate(119.9,56.1)"/><path stroke="#000000" fill="none" d=""/><text font-family="OpenSansCondensedLight" font-size="14pt" fill="black" transform="translate(119.9,56.1)"/><rect stroke-width="0" fill="none" width="96.3" height="42.9" transform="translate(10.9,35.2)"/><text font-family="OpenSansCondensedLight" font-size="14pt" fill="black" transform="translate(10.9,35.2)" text-anchor="middle"><tspan x="48.1" y="6.7">TE</tspan><tspan x="48.1" y="27.7">SERVICES</tspan><tspan x="48.1" y="48.7">222</tspan></text><path stroke="#000000" fill="none" transform="translate(10.9,35.2)" d="M 34.1 51 62.1 51"/></g><g transform="translate(523,573)"><g><g>
<path d="M86,0H0v24h86V0L86,0z" fill="none" stroke="none" stroke-dasharray="none"/>
<rect x="3.8" y="1.1" width="78.5" height="21.8" fill="none"/>
<circle fill="none" cx="43" cy="0" r="0.1"/>
<circle fill="none" cx="64.3" cy="0" r="0.1"/>
<circle fill="none" cx="86" cy="6.1" r="0.1"/>
<circle fill="none" cx="86" cy="12" r="0.1"/>
<circle fill="none" cx="86" cy="17.9" r="0.1"/>
<circle fill="none" cx="64.3" cy="24" r="0.1"/>
<circle fill="none" cx="43" cy="24" r="0.1"/>
<circle fill="none" cx="21.7" cy="24" r="0.1"/>
<circle fill="none" cx="0" cy="17.9" r="0.1"/>
<circle fill="none" cx="0" cy="12" r="0.1"/>
<circle fill="none" cx="0" cy="6.1" r="0.1"/>
<circle fill="none" cx="21.7" cy="0" r="0.1"/>
</g></g><rect stroke="none" stroke-width="0" fill="#FFFFFF" x="0" y="0" width="0" height="0" transform="translate(85.9,11.9)"/><path stroke="#000000" fill="none" d=""/><text font-family="OpenSansCondensedLight" font-size="14pt" fill="black" transform="translate(85.9,11.9)"/><rect stroke-width="0" fill="none" width="78.5" height="21.8" transform="translate(3.8,1.1)"/><text font-family="OpenSansCondensedLight" font-size="14pt" fill="black" transform="translate(3.8,1.1)" text-anchor="middle"><tspan x="39.2" y="17.2">........</tspan></text><path stroke="#000000" fill="none" transform="translate(3.8,1.1)" d="M 0 0"/></g></g><defs/></svg>