<svg xmlns="http://www.w3.org/2000/svg" xmlns:xlink="http://www.w3.org/1999/xlink" version="1.1" width="643.3" height="857.8" viewBox="26 44 643.3 857.8"><g><g transform="translate(212,44)"><g><g>
<path data-relative-d="M{width - min(1cm,width*0.2)},0  H{min(1cm,width*0.2)}  C{min(1cm,width*0.2)/3},0  0,{height/6}  0,{height/2}  C0,{height - height/6}  {min(1cm,width*0.2)/3},{height}  {min(1cm,width*0.2)},{height}  H{width - min(1cm,width*0.2)}  C{width - (min(1cm,width*0.2)/3)},{height}  {width},{height - height/6}  {width},{height/2}  C{width},{height/6}  {width - (min(1cm,width*0.2)/3)},0  {width - min(1cm,width*0.2)},0  z" d="M189,0  H37.8  C12.6,0  0,4.4  0,13.3  C0,22.2  12.6,26.7  37.8,26.7  H189  C214.2,26.7  226.8,22.2  226.8,13.3  C226.8,4.4  214.2,0  189,0  z" stroke="#000000" stroke-dasharray="none" fill="#FFFFFF"/>
<path data-relative-d="M{5mm},{1mm} V{height-0.5mm} H{width-5mm} V{1mm} z" d="M18.9,3.8 V24.8 H207.9 V3.8 z" fill="none"/>

<path fill="none" data-relative-d="M{0.5*width},0 l0.1,0 l0,0.1 z" d="M113.4,0 l0.1,0 l0,0.1 z"/>
<path fill="none" data-relative-d="M{0.8*width},0 l0.1,0 l0,0.1 z" d="M170.1,0 l0.1,0 l0,0.1 z"/>
<path fill="none" data-relative-d="M{width},{0.5*height} l0.1,0 l0,0.1 z" d="M226.8,13.3 l0.1,0 l0,0.1 z"/>
<path fill="none" data-relative-d="M{width},{0.5*height} l0.1,0 l0,0.1 z" d="M226.8,13.3 l0.1,0 l0,0.1 z"/>
<path fill="none" data-relative-d="M{width},{0.5*height} l0.1,0 l0,0.1 z" d="M226.8,13.3 l0.1,0 l0,0.1 z"/>
<path fill="none" data-relative-d="M{0.8*width},{height} l0.1,0 l0,0.1 z" d="M170.1,26.7 l0.1,0 l0,0.1 z"/>
<path fill="none" data-relative-d="M{0.5*width},{height} l0.1,0 l0,0.1 z" d="M113.4,26.7 l0.1,0 l0,0.1 z"/>
<path fill="none" data-relative-d="M{0.3*width},{height} l0.1,0 l0,0.1 z" d="M56.7,26.7 l0.1,0 l0,0.1 z"/>
<path fill="none" data-relative-d="M0,{0.5*height} l0.1,0 l0,0.1 z" d="M0,13.3 l0.1,0 l0,0.1 z"/>
<path fill="none" data-relative-d="M0,{0.5*height} l0.1,0 l0,0.1 z" d="M0,13.3 l0.1,0 l0,0.1 z"/>
<path fill="none" data-relative-d="M0,{0.5*height} l0.1,0 l0,0.1 z" d="M0,13.3 l0.1,0 l0,0.1 z"/>
<path fill="none" data-relative-d="M{0.3*width},0 l0.1,0 l0,0.1 z" d="M56.7,0 l0.1,0 l0,0.1 z"/>
</g></g><rect stroke="none" stroke-width="1" fill="#FFFFFF" x="0" y="0" width="40" height="20" transform="translate(266.8,3.3)"/><path stroke="#000000" fill="none" d="M226.8,13.4 C243.8,30.3 249.8,-3.6 266.8 13.4"/><text font-family="OpenSansCondensedLight" font-size="14pt" fill="black" transform="translate(266.8,3.3)" text-anchor="middle"><tspan x="20" y="16.3">302</tspan></text><rect stroke-width="0" fill="none" width="189" height="21" transform="translate(18.9,3.8)"/><text font-family="OpenSansCondensedLight" font-size="14pt" fill="black" transform="translate(18.9,3.8)" text-anchor="middle"><tspan x="94.5" y="16.8">START</tspan></text><path stroke="#000000" fill="none" transform="translate(18.9,3.8)" d="M 0 0"/></g><g transform="translate(211.9,84)"><g><g>
<path data-relative-d="M{width},0 H0 V{height} H{width} z" d="M227,0 H0 V23 H227 z" stroke="#000000" stroke-dasharray="none" fill="#FFFFFF"/>
<path data-relative-d="M{0.1cm},{0.1cm} V{height-0.1cm} H{width-0.1cm} V{0.1cm} z" d="M3.8,3.8 V21.1 H223.2 V3.8 z" fill="none"/>
<path fill="none" data-relative-d="M{0.5*width},0 l0.1,0 l0,0.1 z" d="M113.5,0 l0.1,0 l0,0.1 z"/>
<path fill="none" data-relative-d="M{0.8*width},0 l0.1,0 l0,0.1 z" d="M170.3,0 l0.1,0 l0,0.1 z"/>
<path fill="none" data-relative-d="M{width},{0.3*height} l0.1,0 l0,0.1 z" d="M227,5.8 l0.1,0 l0,0.1 z"/>
<path fill="none" data-relative-d="M{width},{0.5*height} l0.1,0 l0,0.1 z" d="M227,11.5 l0.1,0 l0,0.1 z"/>
<path fill="none" data-relative-d="M{width},{0.8*height} l0.1,0 l0,0.1 z" d="M227,17.3 l0.1,0 l0,0.1 z"/>
<path fill="none" data-relative-d="M{0.8*width},{height} l0.1,0 l0,0.1 z" d="M170.3,23 l0.1,0 l0,0.1 z"/>
<path fill="none" data-relative-d="M{0.5*width},{height} l0.1,0 l0,0.1 z" d="M113.5,23 l0.1,0 l0,0.1 z"/>
<path fill="none" data-relative-d="M{0.3*width},{height} l0.1,0 l0,0.1 z" d="M56.8,23 l0.1,0 l0,0.1 z"/>
<path fill="none" data-relative-d="M0,{0.8*height} l0.1,0 l0,0.1 z" d="M0,17.3 l0.1,0 l0,0.1 z"/>
<path fill="none" data-relative-d="M0,{0.5*height} l0.1,0 l0,0.1 z" d="M0,11.5 l0.1,0 l0,0.1 z"/>
<path fill="none" data-relative-d="M0,{0.3*height} l0.1,0 l0,0.1 z" d="M0,5.8 l0.1,0 l0,0.1 z"/>
<path fill="none" data-relative-d="M{0.3*width},0 l0.1,0 l0,0.1 z" d="M56.8,0 l0.1,0 l0,0.1 z"/>
</g></g><rect stroke="none" stroke-width="1" fill="#FFFFFF" x="0" y="0" width="40" height="20" transform="translate(267,1.5)"/><path stroke="#000000" fill="none" d="M227.1,11.6 C244,28.5 250,-5.4 267 11.5"/><text font-family="OpenSansCondensedLight" font-size="14pt" fill="black" transform="translate(267,1.5)" text-anchor="middle"><tspan x="20" y="16.3">304</tspan></text><rect stroke-width="0" fill="none" width="219.4" height="17.3" transform="translate(3.8,3.8)"/><text font-family="OpenSansCondensedLight" font-size="14pt" fill="black" transform="translate(3.8,3.8)" text-anchor="middle"><tspan x="109.7" y="15">EVENT PCE DETECTS EVENT</tspan></text><path stroke="#000000" fill="none" transform="translate(3.8,3.8)" d="M 0 0"/></g><g><path stroke="black" stroke-dasharray="none" d="M 325 71 325 76" fill="none"/><path fill="black" stroke="black" d="" transform="translate(325,71) scale(1,1) rotate(-270)"/><path fill="black" stroke="black" d="M 8 0 L 0 4 L 8 8 z" transform="translate(321,84) scale(1,1) rotate(-90)"/><g><g label-idx="0" cursor="move" transform="translate(325, 73.5)"><rect fill="white" rx="3" ry="3" x="0" y="0" width="0" height="0"/><text text-anchor="middle" font-size="14pt" font-family="OpenSansCondensedLight" y="0.8em" display="none" xml:space="preserve" transform="translate(0,0)"/></g></g></g><g transform="translate(211.9,120.3)"><g><g>
<path data-relative-d="M{width},0 H0 V{height} H{width} z" d="M227,0 H0 V42 H227 z" stroke="#000000" stroke-dasharray="none" fill="#FFFFFF"/>
<path data-relative-d="M{0.1cm},{0.1cm} V{height-0.1cm} H{width-0.1cm} V{0.1cm} z" d="M3.8,3.8 V40.1 H223.2 V3.8 z" fill="none"/>
<path fill="none" data-relative-d="M{0.5*width},0 l0.1,0 l0,0.1 z" d="M113.5,0 l0.1,0 l0,0.1 z"/>
<path fill="none" data-relative-d="M{0.8*width},0 l0.1,0 l0,0.1 z" d="M170.3,0 l0.1,0 l0,0.1 z"/>
<path fill="none" data-relative-d="M{width},{0.3*height} l0.1,0 l0,0.1 z" d="M227,10.5 l0.1,0 l0,0.1 z"/>
<path fill="none" data-relative-d="M{width},{0.5*height} l0.1,0 l0,0.1 z" d="M227,21 l0.1,0 l0,0.1 z"/>
<path fill="none" data-relative-d="M{width},{0.8*height} l0.1,0 l0,0.1 z" d="M227,31.5 l0.1,0 l0,0.1 z"/>
<path fill="none" data-relative-d="M{0.8*width},{height} l0.1,0 l0,0.1 z" d="M170.3,42 l0.1,0 l0,0.1 z"/>
<path fill="none" data-relative-d="M{0.5*width},{height} l0.1,0 l0,0.1 z" d="M113.5,42 l0.1,0 l0,0.1 z"/>
<path fill="none" data-relative-d="M{0.3*width},{height} l0.1,0 l0,0.1 z" d="M56.8,42 l0.1,0 l0,0.1 z"/>
<path fill="none" data-relative-d="M0,{0.8*height} l0.1,0 l0,0.1 z" d="M0,31.5 l0.1,0 l0,0.1 z"/>
<path fill="none" data-relative-d="M0,{0.5*height} l0.1,0 l0,0.1 z" d="M0,21 l0.1,0 l0,0.1 z"/>
<path fill="none" data-relative-d="M0,{0.3*height} l0.1,0 l0,0.1 z" d="M0,10.5 l0.1,0 l0,0.1 z"/>
<path fill="none" data-relative-d="M{0.3*width},0 l0.1,0 l0,0.1 z" d="M56.8,0 l0.1,0 l0,0.1 z"/>
</g></g><rect stroke="none" stroke-width="1" fill="#FFFFFF" x="0" y="0" width="40" height="20" transform="translate(267,11)"/><path stroke="#000000" fill="none" d="M227.1,21.1 C244,38 250,4.1 267 21"/><text font-family="OpenSansCondensedLight" font-size="14pt" fill="black" transform="translate(267,11)" text-anchor="middle"><tspan x="20" y="16.3">306</tspan></text><rect stroke-width="0" fill="none" width="219.4" height="36.3" transform="translate(3.8,3.8)"/><text font-family="OpenSansCondensedLight" font-size="14pt" fill="black" transform="translate(3.8,3.8)" text-anchor="middle"><tspan x="109.7" y="14">EVENT PCE SENDS EVENT</tspan><tspan x="109.7" y="35">NOTIFICATION TO OTHER PCES</tspan></text><path stroke="#000000" fill="none" transform="translate(3.8,3.8)" d="M 0 0"/></g><g><path stroke="black" stroke-dasharray="none" d="M 325 107 325 112" fill="none"/><path fill="black" stroke="black" d="" transform="translate(325,107) scale(1,1) rotate(-270)"/><path fill="black" stroke="black" d="M 8 0 L 0 4 L 8 8 z" transform="translate(321,120) scale(1,1) rotate(-90)"/><g><g label-idx="0" cursor="move" transform="translate(325, 109.5)"><rect fill="white" rx="3" ry="3" x="0" y="0" width="0" height="0"/><text text-anchor="middle" font-size="14pt" font-family="OpenSansCondensedLight" y="0.8em" display="none" xml:space="preserve" transform="translate(0,0)"/></g></g></g><g transform="translate(211.9,179.7)"><g><g>
<path data-relative-d="M{width},0 H0 V{height} H{width} z" d="M227,0 H0 V40 H227 z" stroke="#000000" stroke-dasharray="none" fill="#FFFFFF"/>
<path data-relative-d="M{0.1cm},{0.1cm} V{height-0.1cm} H{width-0.1cm} V{0.1cm} z" d="M3.8,3.8 V38.1 H223.2 V3.8 z" fill="none"/>
<path fill="none" data-relative-d="M{0.5*width},0 l0.1,0 l0,0.1 z" d="M113.5,0 l0.1,0 l0,0.1 z"/>
<path fill="none" data-relative-d="M{0.8*width},0 l0.1,0 l0,0.1 z" d="M170.3,0 l0.1,0 l0,0.1 z"/>
<path fill="none" data-relative-d="M{width},{0.3*height} l0.1,0 l0,0.1 z" d="M227,10 l0.1,0 l0,0.1 z"/>
<path fill="none" data-relative-d="M{width},{0.5*height} l0.1,0 l0,0.1 z" d="M227,20 l0.1,0 l0,0.1 z"/>
<path fill="none" data-relative-d="M{width},{0.8*height} l0.1,0 l0,0.1 z" d="M227,30 l0.1,0 l0,0.1 z"/>
<path fill="none" data-relative-d="M{0.8*width},{height} l0.1,0 l0,0.1 z" d="M170.3,40 l0.1,0 l0,0.1 z"/>
<path fill="none" data-relative-d="M{0.5*width},{height} l0.1,0 l0,0.1 z" d="M113.5,40 l0.1,0 l0,0.1 z"/>
<path fill="none" data-relative-d="M{0.3*width},{height} l0.1,0 l0,0.1 z" d="M56.8,40 l0.1,0 l0,0.1 z"/>
<path fill="none" data-relative-d="M0,{0.8*height} l0.1,0 l0,0.1 z" d="M0,30 l0.1,0 l0,0.1 z"/>
<path fill="none" data-relative-d="M0,{0.5*height} l0.1,0 l0,0.1 z" d="M0,20 l0.1,0 l0,0.1 z"/>
<path fill="none" data-relative-d="M0,{0.3*height} l0.1,0 l0,0.1 z" d="M0,10 l0.1,0 l0,0.1 z"/>
<path fill="none" data-relative-d="M{0.3*width},0 l0.1,0 l0,0.1 z" d="M56.8,0 l0.1,0 l0,0.1 z"/>
</g></g><rect stroke="none" stroke-width="1" fill="#FFFFFF" x="0" y="0" width="40" height="20" transform="translate(267,10)"/><path stroke="#000000" fill="none" d="M227.1,20.1 C244,37 250,3.1 267 20"/><text font-family="OpenSansCondensedLight" font-size="14pt" fill="black" transform="translate(267,10)" text-anchor="middle"><tspan x="20" y="16.3">308</tspan></text><rect stroke-width="0" fill="none" width="219.4" height="34.3" transform="translate(3.8,3.8)"/><text font-family="OpenSansCondensedLight" font-size="14pt" fill="black" transform="translate(3.8,3.8)" text-anchor="middle"><tspan x="109.7" y="13">OTHER PCE RECEIVES EVENT</tspan><tspan x="109.7" y="34">NOTIFICATION</tspan></text><path stroke="#000000" fill="none" transform="translate(3.8,3.8)" d="M 0 0"/></g><g><path stroke="black" stroke-dasharray="none" d="M 325 162 325 172" fill="none"/><path fill="black" stroke="black" d="" transform="translate(325,162) scale(1,1) rotate(-270)"/><path fill="black" stroke="black" d="M 8 0 L 0 4 L 8 8 z" transform="translate(321,180) scale(1,1) rotate(-90)"/><g><g label-idx="0" cursor="move" transform="translate(325, 167)"><rect fill="white" rx="3" ry="3" x="0" y="0" width="0" height="0"/><text text-anchor="middle" font-size="14pt" font-family="OpenSansCondensedLight" y="0.8em" display="none" xml:space="preserve" transform="translate(0,0)"/></g></g></g><g transform="translate(211.9,234.1)"><g><g>
<path d="M113.5,0L0,26l113.5,26l113.5,-26L113.5,0L113.5,0z" stroke="#000000" stroke-dasharray="none" fill="#FFFFFF"/>
<rect x="45.8" y="15.6" fill="none" width="134.9" height="20.8"/>
<circle fill="none" cx="113.5" cy="0" r="0.1"/>
<circle fill="none" cx="156.7" cy="9.9" r="0.1"/>
<circle fill="none" cx="195.2" cy="18.7" r="0.1"/>
<circle fill="none" cx="227" cy="26" r="0.1"/>
<circle fill="none" cx="195.2" cy="33.3" r="0.1"/>
<circle fill="none" cx="156.4" cy="42.2" r="0.1"/>
<circle fill="none" cx="113.5" cy="52" r="0.1"/>
<circle fill="none" cx="70.7" cy="42.2" r="0.1"/>
<circle fill="none" cx="31.8" cy="33.3" r="0.1"/>
<circle fill="none" cx="0" cy="26" r="0.1"/>
<circle fill="none" cx="31.8" cy="18.7" r="0.1"/>
<circle fill="none" cx="70.4" cy="9.9" r="0.1"/>
</g></g><rect stroke="none" stroke-width="1" fill="#FFFFFF" x="0" y="0" width="40" height="20" transform="translate(266.9,15.9)"/><path stroke="#000000" fill="none" d="M227,26 C243.9,42.9 249.9,9 266.9 25.9"/><text font-family="OpenSansCondensedLight" font-size="14pt" fill="black" transform="translate(266.9,15.9)" text-anchor="middle"><tspan x="20" y="16.3">310</tspan></text><rect stroke-width="0" fill="none" width="134.9" height="20.8" transform="translate(45.8,15.6)"/><text font-family="OpenSansCondensedLight" font-size="14pt" fill="black" transform="translate(45.8,15.6)" text-anchor="middle"><tspan x="67.5" y="6.2">BENEFIT ANY</tspan><tspan x="67.5" y="27.2">TE-LSPS?</tspan></text><path stroke="#000000" fill="none" transform="translate(45.8,15.6)" d="M 0 0"/></g><g><path stroke="black" stroke-dasharray="none" d="M 325 220 325 226" fill="none"/><path fill="black" stroke="black" d="" transform="translate(325,220) scale(1,1) rotate(-270)"/><path fill="black" stroke="black" d="M 8 0 L 0 4 L 8 8 z" transform="translate(321,234) scale(1,1) rotate(-90)"/><g><g label-idx="0" cursor="move" transform="translate(325, 223)"><rect fill="white" rx="3" ry="3" x="0" y="0" width="0" height="0"/><text text-anchor="middle" font-size="14pt" font-family="OpenSansCondensedLight" y="0.8em" display="none" xml:space="preserve" transform="translate(0,0)"/></g></g></g><g transform="translate(211.9,324.1)"><g><g>
<path data-relative-d="M{width},0 H0 V{height} H{width} z" d="M227,0 H0 V40 H227 z" stroke="#000000" stroke-dasharray="none" fill="#FFFFFF"/>
<path data-relative-d="M{0.1cm},{0.1cm} V{height-0.1cm} H{width-0.1cm} V{0.1cm} z" d="M3.8,3.8 V38.1 H223.2 V3.8 z" fill="none"/>
<path fill="none" data-relative-d="M{0.5*width},0 l0.1,0 l0,0.1 z" d="M113.5,0 l0.1,0 l0,0.1 z"/>
<path fill="none" data-relative-d="M{0.8*width},0 l0.1,0 l0,0.1 z" d="M170.3,0 l0.1,0 l0,0.1 z"/>
<path fill="none" data-relative-d="M{width},{0.3*height} l0.1,0 l0,0.1 z" d="M227,10 l0.1,0 l0,0.1 z"/>
<path fill="none" data-relative-d="M{width},{0.5*height} l0.1,0 l0,0.1 z" d="M227,20 l0.1,0 l0,0.1 z"/>
<path fill="none" data-relative-d="M{width},{0.8*height} l0.1,0 l0,0.1 z" d="M227,30 l0.1,0 l0,0.1 z"/>
<path fill="none" data-relative-d="M{0.8*width},{height} l0.1,0 l0,0.1 z" d="M170.3,40 l0.1,0 l0,0.1 z"/>
<path fill="none" data-relative-d="M{0.5*width},{height} l0.1,0 l0,0.1 z" d="M113.5,40 l0.1,0 l0,0.1 z"/>
<path fill="none" data-relative-d="M{0.3*width},{height} l0.1,0 l0,0.1 z" d="M56.8,40 l0.1,0 l0,0.1 z"/>
<path fill="none" data-relative-d="M0,{0.8*height} l0.1,0 l0,0.1 z" d="M0,30 l0.1,0 l0,0.1 z"/>
<path fill="none" data-relative-d="M0,{0.5*height} l0.1,0 l0,0.1 z" d="M0,20 l0.1,0 l0,0.1 z"/>
<path fill="none" data-relative-d="M0,{0.3*height} l0.1,0 l0,0.1 z" d="M0,10 l0.1,0 l0,0.1 z"/>
<path fill="none" data-relative-d="M{0.3*width},0 l0.1,0 l0,0.1 z" d="M56.8,0 l0.1,0 l0,0.1 z"/>
</g></g><rect stroke="none" stroke-width="1" fill="#FFFFFF" x="0" y="0" width="40" height="20" transform="translate(267,10)"/><path stroke="#000000" fill="none" d="M227.1,20.1 C244,37 250,3.1 267 20"/><text font-family="OpenSansCondensedLight" font-size="14pt" fill="black" transform="translate(267,10)" text-anchor="middle"><tspan x="20" y="16.3">312</tspan></text><rect stroke-width="0" fill="none" width="219.4" height="34.3" transform="translate(3.8,3.8)"/><text font-family="OpenSansCondensedLight" font-size="14pt" fill="black" transform="translate(3.8,3.8)" text-anchor="middle"><tspan x="109.7" y="13">SOURCE PCE SENDS EVENT</tspan><tspan x="109.7" y="34">NOTIFICATION TO ITS DOMAIN</tspan></text><path stroke="#000000" fill="none" transform="translate(3.8,3.8)" d="M 0 0"/></g><g><path stroke="black" stroke-dasharray="none" d="M 325 286 325 316" fill="none"/><path fill="black" stroke="black" d="" transform="translate(325,286) scale(1,1) rotate(-270)"/><path fill="black" stroke="black" d="M 8 0 L 0 4 L 8 8 z" transform="translate(321,324) scale(1,1) rotate(-90)"/><g><g label-idx="0" cursor="move" transform="translate(325, 301)"><rect fill="white" rx="3" ry="3" x="-27" y="-13.1" width="53.9" height="22"/><text text-anchor="start" font-size="14pt" font-family="OpenSansCondensedLight" y="0.8em" display="null" xml:space="preserve" transform="translate(0,-11)"><tspan x="-17.6" y="0.8em">YES</tspan></text></g></g></g><g transform="translate(211.9,380.6)"><g><g>
<path data-relative-d="M{width},0 H0 V{height} H{width} z" d="M227,0 H0 V23 H227 z" stroke="#000000" stroke-dasharray="none" fill="#FFFFFF"/>
<path data-relative-d="M{0.1cm},{0.1cm} V{height-0.1cm} H{width-0.1cm} V{0.1cm} z" d="M3.8,3.8 V21.1 H223.2 V3.8 z" fill="none"/>
<path fill="none" data-relative-d="M{0.5*width},0 l0.1,0 l0,0.1 z" d="M113.5,0 l0.1,0 l0,0.1 z"/>
<path fill="none" data-relative-d="M{0.8*width},0 l0.1,0 l0,0.1 z" d="M170.3,0 l0.1,0 l0,0.1 z"/>
<path fill="none" data-relative-d="M{width},{0.3*height} l0.1,0 l0,0.1 z" d="M227,5.8 l0.1,0 l0,0.1 z"/>
<path fill="none" data-relative-d="M{width},{0.5*height} l0.1,0 l0,0.1 z" d="M227,11.5 l0.1,0 l0,0.1 z"/>
<path fill="none" data-relative-d="M{width},{0.8*height} l0.1,0 l0,0.1 z" d="M227,17.3 l0.1,0 l0,0.1 z"/>
<path fill="none" data-relative-d="M{0.8*width},{height} l0.1,0 l0,0.1 z" d="M170.3,23 l0.1,0 l0,0.1 z"/>
<path fill="none" data-relative-d="M{0.5*width},{height} l0.1,0 l0,0.1 z" d="M113.5,23 l0.1,0 l0,0.1 z"/>
<path fill="none" data-relative-d="M{0.3*width},{height} l0.1,0 l0,0.1 z" d="M56.8,23 l0.1,0 l0,0.1 z"/>
<path fill="none" data-relative-d="M0,{0.8*height} l0.1,0 l0,0.1 z" d="M0,17.3 l0.1,0 l0,0.1 z"/>
<path fill="none" data-relative-d="M0,{0.5*height} l0.1,0 l0,0.1 z" d="M0,11.5 l0.1,0 l0,0.1 z"/>
<path fill="none" data-relative-d="M0,{0.3*height} l0.1,0 l0,0.1 z" d="M0,5.8 l0.1,0 l0,0.1 z"/>
<path fill="none" data-relative-d="M{0.3*width},0 l0.1,0 l0,0.1 z" d="M56.8,0 l0.1,0 l0,0.1 z"/>
</g></g><rect stroke="none" stroke-width="1" fill="#FFFFFF" x="0" y="0" width="40" height="20" transform="translate(267,1.5)"/><path stroke="#000000" fill="none" d="M227.1,11.6 C244,28.5 250,-5.4 267 11.5"/><text font-family="OpenSansCondensedLight" font-size="14pt" fill="black" transform="translate(267,1.5)" text-anchor="middle"><tspan x="20" y="16.3">314</tspan></text><rect stroke-width="0" fill="none" width="219.4" height="17.3" transform="translate(3.8,3.8)"/><text font-family="OpenSansCondensedLight" font-size="14pt" fill="black" transform="translate(3.8,3.8)" text-anchor="middle"><tspan x="109.7" y="15">LSR RECEIVES EVENT NOTIFICATION</tspan></text><path stroke="#000000" fill="none" transform="translate(3.8,3.8)" d="M 0 0"/></g><g><path stroke="black" stroke-dasharray="none" d="M 325 364 325 373" fill="none"/><path fill="black" stroke="black" d="" transform="translate(325,364) scale(1,1) rotate(-270)"/><path fill="black" stroke="black" d="M 8 0 L 0 4 L 8 8 z" transform="translate(321,381) scale(1,1) rotate(-90)"/><g><g label-idx="0" cursor="move" transform="translate(325, 368.5)"><rect fill="white" rx="3" ry="3" x="0" y="0" width="0" height="0"/><text text-anchor="middle" font-size="14pt" font-family="OpenSansCondensedLight" y="0.8em" display="none" xml:space="preserve" transform="translate(0,0)"/></g></g></g><g transform="translate(211.9,422.9)"><g><g>
<path d="M113.5,0L0,35l113.5,35l113.5,-35L113.5,0L113.5,0z" stroke="#000000" stroke-dasharray="none" fill="#FFFFFF"/>
<rect x="45.8" y="21" fill="none" width="134.9" height="28"/>
<circle fill="none" cx="113.5" cy="0" r="0.1"/>
<circle fill="none" cx="156.7" cy="13.3" r="0.1"/>
<circle fill="none" cx="195.2" cy="25.2" r="0.1"/>
<circle fill="none" cx="227" cy="35" r="0.1"/>
<circle fill="none" cx="195.2" cy="44.8" r="0.1"/>
<circle fill="none" cx="156.4" cy="56.8" r="0.1"/>
<circle fill="none" cx="113.5" cy="70" r="0.1"/>
<circle fill="none" cx="70.7" cy="56.8" r="0.1"/>
<circle fill="none" cx="31.8" cy="44.8" r="0.1"/>
<circle fill="none" cx="0" cy="35" r="0.1"/>
<circle fill="none" cx="31.8" cy="25.2" r="0.1"/>
<circle fill="none" cx="70.4" cy="13.3" r="0.1"/>
</g></g><rect stroke="none" stroke-width="1" fill="#FFFFFF" x="0" y="0" width="40" height="20" transform="translate(266.9,24.9)"/><path stroke="#000000" fill="none" d="M227,35 C243.9,51.9 249.9,18 266.9 34.9"/><text font-family="OpenSansCondensedLight" font-size="14pt" fill="black" transform="translate(266.9,24.9)" text-anchor="middle"><tspan x="20" y="16.3">316</tspan></text><rect stroke-width="0" fill="none" width="134.9" height="28" transform="translate(45.8,21)"/><text font-family="OpenSansCondensedLight" font-size="14pt" fill="black" transform="translate(45.8,21)" text-anchor="middle"><tspan x="67.5" y="9.8">IS LSR A HEAD</tspan><tspan x="67.5" y="30.8">END NODE?</tspan></text><path stroke="#000000" fill="none" transform="translate(45.8,21)" d="M 0 0"/></g><g><path stroke="black" stroke-dasharray="none" d="M 325 404 325 415" fill="none"/><path fill="black" stroke="black" d="" transform="translate(325,404) scale(1,1) rotate(-270)"/><path fill="black" stroke="black" d="M 8 0 L 0 4 L 8 8 z" transform="translate(321,423) scale(1,1) rotate(-90)"/><g><g label-idx="0" cursor="move" transform="translate(325, 409.5)"><rect fill="white" rx="3" ry="3" x="0" y="0" width="0" height="0"/><text text-anchor="middle" font-size="14pt" font-family="OpenSansCondensedLight" y="0.8em" display="none" xml:space="preserve" transform="translate(0,0)"/></g></g></g><g transform="translate(211.9,529.9)"><g><g>
<path data-relative-d="M{width},0 H0 V{height} H{width} z" d="M227,0 H0 V63 H227 z" stroke="#000000" stroke-dasharray="none" fill="#FFFFFF"/>
<path data-relative-d="M{0.1cm},{0.1cm} V{height-0.1cm} H{width-0.1cm} V{0.1cm} z" d="M3.8,3.8 V61.1 H223.2 V3.8 z" fill="none"/>
<path fill="none" data-relative-d="M{0.5*width},0 l0.1,0 l0,0.1 z" d="M113.5,0 l0.1,0 l0,0.1 z"/>
<path fill="none" data-relative-d="M{0.8*width},0 l0.1,0 l0,0.1 z" d="M170.3,0 l0.1,0 l0,0.1 z"/>
<path fill="none" data-relative-d="M{width},{0.3*height} l0.1,0 l0,0.1 z" d="M227,15.8 l0.1,0 l0,0.1 z"/>
<path fill="none" data-relative-d="M{width},{0.5*height} l0.1,0 l0,0.1 z" d="M227,31.5 l0.1,0 l0,0.1 z"/>
<path fill="none" data-relative-d="M{width},{0.8*height} l0.1,0 l0,0.1 z" d="M227,47.3 l0.1,0 l0,0.1 z"/>
<path fill="none" data-relative-d="M{0.8*width},{height} l0.1,0 l0,0.1 z" d="M170.3,63 l0.1,0 l0,0.1 z"/>
<path fill="none" data-relative-d="M{0.5*width},{height} l0.1,0 l0,0.1 z" d="M113.5,63 l0.1,0 l0,0.1 z"/>
<path fill="none" data-relative-d="M{0.3*width},{height} l0.1,0 l0,0.1 z" d="M56.8,63 l0.1,0 l0,0.1 z"/>
<path fill="none" data-relative-d="M0,{0.8*height} l0.1,0 l0,0.1 z" d="M0,47.3 l0.1,0 l0,0.1 z"/>
<path fill="none" data-relative-d="M0,{0.5*height} l0.1,0 l0,0.1 z" d="M0,31.5 l0.1,0 l0,0.1 z"/>
<path fill="none" data-relative-d="M0,{0.3*height} l0.1,0 l0,0.1 z" d="M0,15.8 l0.1,0 l0,0.1 z"/>
<path fill="none" data-relative-d="M{0.3*width},0 l0.1,0 l0,0.1 z" d="M56.8,0 l0.1,0 l0,0.1 z"/>
</g></g><rect stroke="none" stroke-width="1" fill="#FFFFFF" x="0" y="0" width="40" height="20" transform="translate(267,21.5)"/><path stroke="#000000" fill="none" d="M227.1,31.6 C244,48.5 250,14.6 267 31.5"/><text font-family="OpenSansCondensedLight" font-size="14pt" fill="black" transform="translate(267,21.5)" text-anchor="middle"><tspan x="20" y="16.3">318</tspan></text><rect stroke-width="0" fill="none" width="219.4" height="57.3" transform="translate(3.8,3.8)"/><text font-family="OpenSansCondensedLight" font-size="14pt" fill="black" transform="translate(3.8,3.8)" text-anchor="middle"><tspan x="109.7" y="14">HEAD END NODE SENDS</tspan><tspan x="109.7" y="35">OPTIMIZATION REQUEST TO SOURCE</tspan><tspan x="109.7" y="56">PCE</tspan></text><path stroke="#000000" fill="none" transform="translate(3.8,3.8)" d="M 0 0"/></g><g><path stroke="black" stroke-dasharray="none" d="M 325 493 325 522" fill="none"/><path fill="black" stroke="black" d="" transform="translate(325,493) scale(1,1) rotate(-270)"/><path fill="black" stroke="black" d="M 8 0 L 0 4 L 8 8 z" transform="translate(321,530) scale(1,1) rotate(-90)"/><g><g label-idx="0" cursor="move" transform="translate(325, 507.5)"><rect fill="white" rx="3" ry="3" x="-27" y="-13.1" width="53.9" height="22"/><text text-anchor="start" font-size="14pt" font-family="OpenSansCondensedLight" y="0.8em" display="null" xml:space="preserve" transform="translate(0,-11)"><tspan x="-17.6" y="0.8em">YES</tspan></text></g></g></g><g transform="translate(211.9,609.2)"><g><g>
<path data-relative-d="M{width},0 H0 V{height} H{width} z" d="M227,0 H0 V42 H227 z" stroke="#000000" stroke-dasharray="none" fill="#FFFFFF"/>
<path data-relative-d="M{0.1cm},{0.1cm} V{height-0.1cm} H{width-0.1cm} V{0.1cm} z" d="M3.8,3.8 V40.1 H223.2 V3.8 z" fill="none"/>
<path fill="none" data-relative-d="M{0.5*width},0 l0.1,0 l0,0.1 z" d="M113.5,0 l0.1,0 l0,0.1 z"/>
<path fill="none" data-relative-d="M{0.8*width},0 l0.1,0 l0,0.1 z" d="M170.3,0 l0.1,0 l0,0.1 z"/>
<path fill="none" data-relative-d="M{width},{0.3*height} l0.1,0 l0,0.1 z" d="M227,10.5 l0.1,0 l0,0.1 z"/>
<path fill="none" data-relative-d="M{width},{0.5*height} l0.1,0 l0,0.1 z" d="M227,21 l0.1,0 l0,0.1 z"/>
<path fill="none" data-relative-d="M{width},{0.8*height} l0.1,0 l0,0.1 z" d="M227,31.5 l0.1,0 l0,0.1 z"/>
<path fill="none" data-relative-d="M{0.8*width},{height} l0.1,0 l0,0.1 z" d="M170.3,42 l0.1,0 l0,0.1 z"/>
<path fill="none" data-relative-d="M{0.5*width},{height} l0.1,0 l0,0.1 z" d="M113.5,42 l0.1,0 l0,0.1 z"/>
<path fill="none" data-relative-d="M{0.3*width},{height} l0.1,0 l0,0.1 z" d="M56.8,42 l0.1,0 l0,0.1 z"/>
<path fill="none" data-relative-d="M0,{0.8*height} l0.1,0 l0,0.1 z" d="M0,31.5 l0.1,0 l0,0.1 z"/>
<path fill="none" data-relative-d="M0,{0.5*height} l0.1,0 l0,0.1 z" d="M0,21 l0.1,0 l0,0.1 z"/>
<path fill="none" data-relative-d="M0,{0.3*height} l0.1,0 l0,0.1 z" d="M0,10.5 l0.1,0 l0,0.1 z"/>
<path fill="none" data-relative-d="M{0.3*width},0 l0.1,0 l0,0.1 z" d="M56.8,0 l0.1,0 l0,0.1 z"/>
</g></g><rect stroke="none" stroke-width="1" fill="#FFFFFF" x="0" y="0" width="40" height="20" transform="translate(267,11)"/><path stroke="#000000" fill="none" d="M227.1,21.1 C244,38 250,4.1 267 21"/><text font-family="OpenSansCondensedLight" font-size="14pt" fill="black" transform="translate(267,11)" text-anchor="middle"><tspan x="20" y="16.3">320</tspan></text><rect stroke-width="0" fill="none" width="219.4" height="36.3" transform="translate(3.8,3.8)"/><text font-family="OpenSansCondensedLight" font-size="14pt" fill="black" transform="translate(3.8,3.8)" text-anchor="middle"><tspan x="109.7" y="14">SOURCE PCE RECEIVES</tspan><tspan x="109.7" y="35">OPTIMIZATION REQUEST</tspan></text><path stroke="#000000" fill="none" transform="translate(3.8,3.8)" d="M 0 0"/></g><g><path stroke="black" stroke-dasharray="none" d="M 325 593 325 601" fill="none"/><path fill="black" stroke="black" d="" transform="translate(325,593) scale(1,1) rotate(-270)"/><path fill="black" stroke="black" d="M 8 0 L 0 4 L 8 8 z" transform="translate(321,609) scale(1,1) rotate(-90)"/><g><g label-idx="0" cursor="move" transform="translate(325, 597)"><rect fill="white" rx="3" ry="3" x="0" y="0" width="0" height="0"/><text text-anchor="middle" font-size="14pt" font-family="OpenSansCondensedLight" y="0.8em" display="none" xml:space="preserve" transform="translate(0,0)"/></g></g></g><g transform="translate(211.9,669.7)"><g><g>
<path data-relative-d="M{width},0 H0 V{height} H{width} z" d="M227,0 H0 V81 H227 z" stroke="#000000" stroke-dasharray="none" fill="#FFFFFF"/>
<path data-relative-d="M{0.1cm},{0.1cm} V{height-0.1cm} H{width-0.1cm} V{0.1cm} z" d="M3.8,3.8 V79.1 H223.2 V3.8 z" fill="none"/>
<path fill="none" data-relative-d="M{0.5*width},0 l0.1,0 l0,0.1 z" d="M113.5,0 l0.1,0 l0,0.1 z"/>
<path fill="none" data-relative-d="M{0.8*width},0 l0.1,0 l0,0.1 z" d="M170.3,0 l0.1,0 l0,0.1 z"/>
<path fill="none" data-relative-d="M{width},{0.3*height} l0.1,0 l0,0.1 z" d="M227,20.3 l0.1,0 l0,0.1 z"/>
<path fill="none" data-relative-d="M{width},{0.5*height} l0.1,0 l0,0.1 z" d="M227,40.5 l0.1,0 l0,0.1 z"/>
<path fill="none" data-relative-d="M{width},{0.8*height} l0.1,0 l0,0.1 z" d="M227,60.8 l0.1,0 l0,0.1 z"/>
<path fill="none" data-relative-d="M{0.8*width},{height} l0.1,0 l0,0.1 z" d="M170.3,81 l0.1,0 l0,0.1 z"/>
<path fill="none" data-relative-d="M{0.5*width},{height} l0.1,0 l0,0.1 z" d="M113.5,81 l0.1,0 l0,0.1 z"/>
<path fill="none" data-relative-d="M{0.3*width},{height} l0.1,0 l0,0.1 z" d="M56.8,81 l0.1,0 l0,0.1 z"/>
<path fill="none" data-relative-d="M0,{0.8*height} l0.1,0 l0,0.1 z" d="M0,60.8 l0.1,0 l0,0.1 z"/>
<path fill="none" data-relative-d="M0,{0.5*height} l0.1,0 l0,0.1 z" d="M0,40.5 l0.1,0 l0,0.1 z"/>
<path fill="none" data-relative-d="M0,{0.3*height} l0.1,0 l0,0.1 z" d="M0,20.3 l0.1,0 l0,0.1 z"/>
<path fill="none" data-relative-d="M{0.3*width},0 l0.1,0 l0,0.1 z" d="M56.8,0 l0.1,0 l0,0.1 z"/>
</g></g><rect stroke="none" stroke-width="1" fill="#FFFFFF" x="0" y="0" width="40" height="20" transform="translate(267,30.5)"/><path stroke="#000000" fill="none" d="M227.1,40.5 C244,57.5 250,23.6 267 40.5"/><text font-family="OpenSansCondensedLight" font-size="14pt" fill="black" transform="translate(267,30.5)" text-anchor="middle"><tspan x="20" y="16.3">322</tspan></text><rect stroke-width="0" fill="none" width="219.4" height="75.3" transform="translate(3.8,3.8)"/><text font-family="OpenSansCondensedLight" font-size="14pt" fill="black" transform="translate(3.8,3.8)" text-anchor="middle"><tspan x="109.7" y="12.5">SOURCE PCE CHECKS IF TE-LSP</tspan><tspan x="109.7" y="33.5">WOULD BENEFIT FROM</tspan><tspan x="109.7" y="54.5">OPTIMIZATION BASED ON EVENT</tspan><tspan x="109.7" y="75.5">DOMAIN</tspan></text><path stroke="#000000" fill="none" transform="translate(3.8,3.8)" d="M 0 0"/></g><g><path stroke="black" stroke-dasharray="none" d="M 325 651 325 662" fill="none"/><path fill="black" stroke="black" d="" transform="translate(325,651) scale(1,1) rotate(-270)"/><path fill="black" stroke="black" d="M 8 0 L 0 4 L 8 8 z" transform="translate(321,670) scale(1,1) rotate(-90)"/><g><g label-idx="0" cursor="move" transform="translate(325, 656.5)"><rect fill="white" rx="3" ry="3" x="0" y="0" width="0" height="0"/><text text-anchor="middle" font-size="14pt" font-family="OpenSansCondensedLight" y="0.8em" display="none" xml:space="preserve" transform="translate(0,0)"/></g></g></g><g transform="translate(211.9,769.1)"><g><g>
<path d="M113.5,0L0,27.5l113.5,27.5l113.5,-27.5L113.5,0L113.5,0z" stroke="#000000" stroke-dasharray="none" fill="#FFFFFF"/>
<rect x="45.8" y="16.5" fill="none" width="134.9" height="22"/>
<circle fill="none" cx="113.5" cy="0" r="0.1"/>
<circle fill="none" cx="156.7" cy="10.4" r="0.1"/>
<circle fill="none" cx="195.2" cy="19.8" r="0.1"/>
<circle fill="none" cx="227" cy="27.5" r="0.1"/>
<circle fill="none" cx="195.2" cy="35.3" r="0.1"/>
<circle fill="none" cx="156.4" cy="44.7" r="0.1"/>
<circle fill="none" cx="113.5" cy="55" r="0.1"/>
<circle fill="none" cx="70.7" cy="44.7" r="0.1"/>
<circle fill="none" cx="31.8" cy="35.2" r="0.1"/>
<circle fill="none" cx="0" cy="27.5" r="0.1"/>
<circle fill="none" cx="31.8" cy="19.8" r="0.1"/>
<circle fill="none" cx="70.4" cy="10.4" r="0.1"/>
</g></g><rect stroke="none" stroke-width="1" fill="#FFFFFF" x="0" y="0" width="40" height="20" transform="translate(-40.3,-20.3)"/><path stroke="#000000" fill="none" d="M31.8,19.8 C25.5,-3.5 3.2,23 -3 -0.3"/><text font-family="OpenSansCondensedLight" font-size="14pt" fill="black" transform="translate(-40.3,-20.3)" text-anchor="middle"><tspan x="20" y="16.3">324</tspan></text><rect stroke-width="0" fill="none" width="134.9" height="22" transform="translate(45.8,16.5)"/><text font-family="OpenSansCondensedLight" font-size="14pt" fill="black" transform="translate(45.8,16.5)" text-anchor="middle"><tspan x="67.5" y="6.8">BENEFIT THAT</tspan><tspan x="67.5" y="27.8">TE-LSP?</tspan></text><path stroke="#000000" fill="none" transform="translate(45.8,16.5)" d="M 0 0"/></g><g><path stroke="black" stroke-dasharray="none" d="M 325 751 325 761" fill="none"/><path fill="black" stroke="black" d="" transform="translate(325,751) scale(1,1) rotate(-270)"/><path fill="black" stroke="black" d="M 8 0 L 0 4 L 8 8 z" transform="translate(321,769) scale(1,1) rotate(-90)"/><g><g label-idx="0" cursor="move" transform="translate(325, 756)"><rect fill="white" rx="3" ry="3" x="0" y="0" width="0" height="0"/><text text-anchor="middle" font-size="14pt" font-family="OpenSansCondensedLight" y="0.8em" display="none" xml:space="preserve" transform="translate(0,0)"/></g></g></g><g transform="translate(501,762.3)"><g><g>
<path data-relative-d="M{width},0 H0 V{height} H{width} z" d="M123,0 H0 V68.5 H123 z" stroke="#000000" stroke-dasharray="none" fill="#FFFFFF"/>
<path data-relative-d="M{0.1cm},{0.1cm} V{height-0.1cm} H{width-0.1cm} V{0.1cm} z" d="M3.8,3.8 V66.6 H119.2 V3.8 z" fill="none"/>
<path fill="none" data-relative-d="M{0.5*width},0 l0.1,0 l0,0.1 z" d="M61.5,0 l0.1,0 l0,0.1 z"/>
<path fill="none" data-relative-d="M{0.8*width},0 l0.1,0 l0,0.1 z" d="M92.3,0 l0.1,0 l0,0.1 z"/>
<path fill="none" data-relative-d="M{width},{0.3*height} l0.1,0 l0,0.1 z" d="M123,17.1 l0.1,0 l0,0.1 z"/>
<path fill="none" data-relative-d="M{width},{0.5*height} l0.1,0 l0,0.1 z" d="M123,34.3 l0.1,0 l0,0.1 z"/>
<path fill="none" data-relative-d="M{width},{0.8*height} l0.1,0 l0,0.1 z" d="M123,51.4 l0.1,0 l0,0.1 z"/>
<path fill="none" data-relative-d="M{0.8*width},{height} l0.1,0 l0,0.1 z" d="M92.3,68.5 l0.1,0 l0,0.1 z"/>
<path fill="none" data-relative-d="M{0.5*width},{height} l0.1,0 l0,0.1 z" d="M61.5,68.5 l0.1,0 l0,0.1 z"/>
<path fill="none" data-relative-d="M{0.3*width},{height} l0.1,0 l0,0.1 z" d="M30.8,68.5 l0.1,0 l0,0.1 z"/>
<path fill="none" data-relative-d="M0,{0.8*height} l0.1,0 l0,0.1 z" d="M0,51.4 l0.1,0 l0,0.1 z"/>
<path fill="none" data-relative-d="M0,{0.5*height} l0.1,0 l0,0.1 z" d="M0,34.3 l0.1,0 l0,0.1 z"/>
<path fill="none" data-relative-d="M0,{0.3*height} l0.1,0 l0,0.1 z" d="M0,17.1 l0.1,0 l0,0.1 z"/>
<path fill="none" data-relative-d="M{0.3*width},0 l0.1,0 l0,0.1 z" d="M30.8,0 l0.1,0 l0,0.1 z"/>
</g></g><rect stroke="none" stroke-width="1" fill="#FFFFFF" x="0" y="0" width="40" height="20" transform="translate(102.3,-62)"/><path stroke="#000000" fill="none" d="M92.3,0.1 C120.4,-7.5 88.4,-34.4 116.5 -42"/><text font-family="OpenSansCondensedLight" font-size="14pt" fill="black" transform="translate(102.3,-62)" text-anchor="middle"><tspan x="20" y="16.3">328</tspan></text><rect stroke-width="0" fill="none" width="115.4" height="62.8" transform="translate(3.8,3.8)"/><text font-family="OpenSansCondensedLight" font-size="14pt" fill="black" transform="translate(3.8,3.8)" text-anchor="middle"><tspan x="57.7" y="16.7">REJECT</tspan><tspan x="57.7" y="37.7">OPTIMIZATION</tspan><tspan x="57.7" y="58.7">REQUEST</tspan></text><path stroke="#000000" fill="none" transform="translate(3.8,3.8)" d="M 0 0"/></g><g><path stroke="black" stroke-dasharray="none" d="M 439 797 493 797" fill="none"/><path fill="black" stroke="black" d="" transform="translate(439,797) scale(1,1) rotate(0)"/><path fill="black" stroke="black" d="M 8 0 L 0 4 L 8 8 z" transform="translate(501,801) scale(1,1) rotate(-180)"/><g><g label-idx="0" cursor="move" transform="translate(466, 797)"><rect fill="white" rx="3" ry="3" x="0" y="0" width="0" height="0"/><text text-anchor="middle" font-size="14pt" font-family="OpenSansCondensedLight" y="0.8em" display="none" xml:space="preserve" transform="translate(0,0)"/></g></g></g><g transform="translate(264,831)"><g><g>
<path data-relative-d="M{width - min(1cm,width*0.2)},0  H{min(1cm,width*0.2)}  C{min(1cm,width*0.2)/3},0  0,{height/6}  0,{height/2}  C0,{height - height/6}  {min(1cm,width*0.2)/3},{height}  {min(1cm,width*0.2)},{height}  H{width - min(1cm,width*0.2)}  C{width - (min(1cm,width*0.2)/3)},{height}  {width},{height - height/6}  {width},{height/2}  C{width},{height/6}  {width - (min(1cm,width*0.2)/3)},0  {width - min(1cm,width*0.2)},0  z" d="M98.4,0  H24.6  C8.2,0  0,4.5  0,13.4  C0,22.3  8.2,26.7  24.6,26.7  H98.4  C114.8,26.7  123,22.3  123,13.4  C123,4.5  114.8,0  98.4,0  z" stroke="#000000" stroke-dasharray="none" fill="#FFFFFF"/>
<path data-relative-d="M{5mm},{1mm} V{height-0.5mm} H{width-5mm} V{1mm} z" d="M18.9,3.8 V24.8 H104.1 V3.8 z" fill="none"/>

<path fill="none" data-relative-d="M{0.5*width},0 l0.1,0 l0,0.1 z" d="M61.5,0 l0.1,0 l0,0.1 z"/>
<path fill="none" data-relative-d="M{0.8*width},0 l0.1,0 l0,0.1 z" d="M92.3,0 l0.1,0 l0,0.1 z"/>
<path fill="none" data-relative-d="M{width},{0.5*height} l0.1,0 l0,0.1 z" d="M123,13.4 l0.1,0 l0,0.1 z"/>
<path fill="none" data-relative-d="M{width},{0.5*height} l0.1,0 l0,0.1 z" d="M123,13.4 l0.1,0 l0,0.1 z"/>
<path fill="none" data-relative-d="M{width},{0.5*height} l0.1,0 l0,0.1 z" d="M123,13.4 l0.1,0 l0,0.1 z"/>
<path fill="none" data-relative-d="M{0.8*width},{height} l0.1,0 l0,0.1 z" d="M92.3,26.7 l0.1,0 l0,0.1 z"/>
<path fill="none" data-relative-d="M{0.5*width},{height} l0.1,0 l0,0.1 z" d="M61.5,26.7 l0.1,0 l0,0.1 z"/>
<path fill="none" data-relative-d="M{0.3*width},{height} l0.1,0 l0,0.1 z" d="M30.8,26.7 l0.1,0 l0,0.1 z"/>
<path fill="none" data-relative-d="M0,{0.5*height} l0.1,0 l0,0.1 z" d="M0,13.4 l0.1,0 l0,0.1 z"/>
<path fill="none" data-relative-d="M0,{0.5*height} l0.1,0 l0,0.1 z" d="M0,13.4 l0.1,0 l0,0.1 z"/>
<path fill="none" data-relative-d="M0,{0.5*height} l0.1,0 l0,0.1 z" d="M0,13.4 l0.1,0 l0,0.1 z"/>
<path fill="none" data-relative-d="M{0.3*width},0 l0.1,0 l0,0.1 z" d="M30.8,0 l0.1,0 l0,0.1 z"/>
</g></g><rect stroke="none" stroke-width="1" fill="#FFFFFF" x="0" y="0" width="40" height="20" transform="translate(155,-26.6)"/><path stroke="#000000" fill="none" d="M123,13.4 C146.3,19.6 134.5,-12.8 157.7 -6.6"/><text font-family="OpenSansCondensedLight" font-size="14pt" fill="black" transform="translate(155,-26.6)" text-anchor="middle"><tspan x="20" y="16.3">330</tspan></text><rect stroke-width="0" fill="none" width="85.2" height="21.1" transform="translate(18.9,3.8)"/><text font-family="OpenSansCondensedLight" font-size="14pt" fill="black" transform="translate(18.9,3.8)" text-anchor="middle"><tspan x="42.6" y="16.8">END </tspan></text><path stroke="#000000" fill="none" transform="translate(18.9,3.8)" d="M 0 0"/></g><g><path stroke="black" stroke-dasharray="none" d="M 571 831 571 847 395 847" fill="none"/><path fill="black" stroke="black" d="" transform="translate(571,831) scale(1,1) rotate(-270)"/><path fill="black" stroke="black" d="M 8 0 L 0 4 L 8 8 z" transform="translate(387,843) scale(1,1) rotate(0)"/><g><g label-idx="0" cursor="move" transform="translate(491, 847)"><rect fill="white" rx="3" ry="3" x="0" y="0" width="0" height="0"/><text text-anchor="middle" font-size="14pt" font-family="OpenSansCondensedLight" y="0.8em" display="none" xml:space="preserve" transform="translate(0,0)"/></g></g></g><g transform="translate(66,762.1)"><g><g>
<path data-relative-d="M{width},0 H0 V{height} H{width} z" d="M105,0 H0 V69 H105 z" stroke="#000000" stroke-dasharray="none" fill="#FFFFFF"/>
<path data-relative-d="M{0.1cm},{0.1cm} V{height-0.1cm} H{width-0.1cm} V{0.1cm} z" d="M3.8,3.8 V67.1 H101.2 V3.8 z" fill="none"/>
<path fill="none" data-relative-d="M{0.5*width},0 l0.1,0 l0,0.1 z" d="M52.5,0 l0.1,0 l0,0.1 z"/>
<path fill="none" data-relative-d="M{0.8*width},0 l0.1,0 l0,0.1 z" d="M78.8,0 l0.1,0 l0,0.1 z"/>
<path fill="none" data-relative-d="M{width},{0.3*height} l0.1,0 l0,0.1 z" d="M105,17.3 l0.1,0 l0,0.1 z"/>
<path fill="none" data-relative-d="M{width},{0.5*height} l0.1,0 l0,0.1 z" d="M105,34.5 l0.1,0 l0,0.1 z"/>
<path fill="none" data-relative-d="M{width},{0.8*height} l0.1,0 l0,0.1 z" d="M105,51.8 l0.1,0 l0,0.1 z"/>
<path fill="none" data-relative-d="M{0.8*width},{height} l0.1,0 l0,0.1 z" d="M78.8,69 l0.1,0 l0,0.1 z"/>
<path fill="none" data-relative-d="M{0.5*width},{height} l0.1,0 l0,0.1 z" d="M52.5,69 l0.1,0 l0,0.1 z"/>
<path fill="none" data-relative-d="M{0.3*width},{height} l0.1,0 l0,0.1 z" d="M26.3,69 l0.1,0 l0,0.1 z"/>
<path fill="none" data-relative-d="M0,{0.8*height} l0.1,0 l0,0.1 z" d="M0,51.8 l0.1,0 l0,0.1 z"/>
<path fill="none" data-relative-d="M0,{0.5*height} l0.1,0 l0,0.1 z" d="M0,34.5 l0.1,0 l0,0.1 z"/>
<path fill="none" data-relative-d="M0,{0.3*height} l0.1,0 l0,0.1 z" d="M0,17.3 l0.1,0 l0,0.1 z"/>
<path fill="none" data-relative-d="M{0.3*width},0 l0.1,0 l0,0.1 z" d="M26.3,0 l0.1,0 l0,0.1 z"/>
</g></g><rect stroke="none" stroke-width="1" fill="#FFFFFF" x="0" y="0" width="40" height="20" transform="translate(88.8,-62)"/><path stroke="#000000" fill="none" d="M78.8,0.1 C106.9,-7.5 74.9,-34.4 103 -42"/><text font-family="OpenSansCondensedLight" font-size="14pt" fill="black" transform="translate(88.8,-62)" text-anchor="middle"><tspan x="20" y="16.3">326</tspan></text><rect stroke-width="0" fill="none" width="97.4" height="63.3" transform="translate(3.8,3.8)"/><text font-family="OpenSansCondensedLight" font-size="14pt" fill="black" transform="translate(3.8,3.8)" text-anchor="middle"><tspan x="48.7" y="17">PROCESS</tspan><tspan x="48.7" y="38">OPTIMIZATION</tspan><tspan x="48.7" y="59">REQUEST</tspan></text><path stroke="#000000" fill="none" transform="translate(3.8,3.8)" d="M 0 0"/></g><g><path stroke="black" stroke-dasharray="none" d="M 212 797 179 797" fill="none"/><path fill="black" stroke="black" d="" transform="translate(212,797) scale(1,1) rotate(-180)"/><path fill="black" stroke="black" d="M 8 0 L 0 4 L 8 8 z" transform="translate(171,793) scale(1,1) rotate(0)"/><g><g label-idx="0" cursor="move" transform="translate(195.5, 797)"><rect fill="white" rx="3" ry="3" x="0" y="0" width="0" height="0"/><text text-anchor="middle" font-size="14pt" font-family="OpenSansCondensedLight" y="0.8em" display="none" xml:space="preserve" transform="translate(0,0)"/></g></g></g><g><path stroke="black" stroke-dasharray="none" d="M 119 831 119 845 255 845" fill="none"/><path fill="black" stroke="black" d="" transform="translate(119,831) scale(1,1) rotate(-270)"/><path fill="black" stroke="black" d="M 8 0 L 0 4 L 8 8 z" transform="translate(263,849) scale(1,1) rotate(-180)"/><g><g label-idx="0" cursor="move" transform="translate(180, 845)"><rect fill="white" rx="3" ry="3" x="0" y="0" width="0" height="0"/><text text-anchor="middle" font-size="14pt" font-family="OpenSansCondensedLight" y="0.8em" display="none" xml:space="preserve" transform="translate(0,0)"/></g></g></g><g><path stroke="black" stroke-dasharray="none" d="M 212 460 28 460 30 846 256 846" fill="none"/><path fill="black" stroke="black" d="" transform="translate(212,460) scale(1,1) rotate(-180)"/><path fill="black" stroke="black" d="M 8 0 L 0 4 L 8 8 z" transform="translate(264,850) scale(1,1) rotate(-180)"/><g><g label-idx="0" cursor="move" transform="translate(29.1, 674)"><rect fill="white" rx="3" ry="3" x="0" y="0" width="0" height="0"/><text text-anchor="middle" font-size="14pt" font-family="OpenSansCondensedLight" y="0.8em" display="none" xml:space="preserve" transform="translate(0,0)"/></g></g></g><g transform="translate(158,432)"><g><g>
<path d="M56.7,0H0v24.2h56.7V0L56.7,0z" fill="none" stroke="none" stroke-dasharray="none"/>
<rect x="2.5" y="1.1" width="51.7" height="22" fill="none"/>
<circle fill="none" cx="28.3" cy="0" r="0.1"/>
<circle fill="none" cx="42.4" cy="0" r="0.1"/>
<circle fill="none" cx="56.7" cy="6.1" r="0.1"/>
<circle fill="none" cx="56.7" cy="12.1" r="0.1"/>
<circle fill="none" cx="56.7" cy="18.1" r="0.1"/>
<circle fill="none" cx="42.4" cy="24.2" r="0.1"/>
<circle fill="none" cx="28.3" cy="24.2" r="0.1"/>
<circle fill="none" cx="14.3" cy="24.2" r="0.1"/>
<circle fill="none" cx="0" cy="18.1" r="0.1"/>
<circle fill="none" cx="0" cy="12.1" r="0.1"/>
<circle fill="none" cx="0" cy="6.1" r="0.1"/>
<circle fill="none" cx="14.3" cy="0" r="0.1"/>
</g></g><rect stroke="none" stroke-width="0" fill="#FFFFFF" x="0" y="0" width="0" height="0" transform="translate(56.6,12)"/><path stroke="#000000" fill="none" d=""/><text font-family="OpenSansCondensedLight" font-size="14pt" fill="black" transform="translate(56.6,12)"/><rect stroke-width="0" fill="none" width="51.7" height="22" transform="translate(2.5,1.1)"/><text font-family="OpenSansCondensedLight" font-size="14pt" fill="black" transform="translate(2.5,1.1)" text-anchor="middle"><tspan x="25.9" y="17.3">NO</tspan></text><path stroke="#000000" fill="none" transform="translate(2.5,1.1)" d="M 0 0"/></g><g><path stroke="black" d="M 212 259 26 259 30 845 256 845" fill="none"/><path fill="black" stroke="black" d="" transform="translate(212,259) scale(1,1) rotate(-180)"/><path fill="black" stroke="black" d="M 8 0 L 0 4 L 8 8 z" transform="translate(264,849) scale(1,1) rotate(-180)"/><g><g label-idx="0" cursor="move" transform="translate(28.1, 572)"><rect fill="white" rx="3" ry="3" x="0" y="0" width="0" height="0"/><text text-anchor="middle" font-size="14pt" font-family="OpenSansCondensedLight" y="0.8em" display="none" xml:space="preserve" transform="translate(0,0)"/></g></g></g><g transform="translate(167,233)"><g><g>
<path d="M56.7,0H0v24.2h56.7V0L56.7,0z" fill="none" stroke="none" stroke-dasharray="none"/>
<rect x="2.5" y="1.1" width="51.7" height="22" fill="none"/>
<circle fill="none" cx="28.3" cy="0" r="0.1"/>
<circle fill="none" cx="42.4" cy="0" r="0.1"/>
<circle fill="none" cx="56.7" cy="6.1" r="0.1"/>
<circle fill="none" cx="56.7" cy="12.1" r="0.1"/>
<circle fill="none" cx="56.7" cy="18.1" r="0.1"/>
<circle fill="none" cx="42.4" cy="24.2" r="0.1"/>
<circle fill="none" cx="28.3" cy="24.2" r="0.1"/>
<circle fill="none" cx="14.3" cy="24.2" r="0.1"/>
<circle fill="none" cx="0" cy="18.1" r="0.1"/>
<circle fill="none" cx="0" cy="12.1" r="0.1"/>
<circle fill="none" cx="0" cy="6.1" r="0.1"/>
<circle fill="none" cx="14.3" cy="0" r="0.1"/>
</g></g><rect stroke="none" stroke-width="0" fill="#FFFFFF" x="0" y="0" width="0" height="0" transform="translate(56.6,12)"/><path stroke="#000000" fill="none" d=""/><text font-family="OpenSansCondensedLight" font-size="14pt" fill="black" transform="translate(56.6,12)"/><rect stroke-width="0" fill="none" width="51.7" height="22" transform="translate(2.5,1.1)"/><text font-family="OpenSansCondensedLight" font-size="14pt" fill="black" transform="translate(2.5,1.1)" text-anchor="middle"><tspan x="25.9" y="17.3">NO</tspan></text><path stroke="#000000" fill="none" transform="translate(2.5,1.1)" d="M 0 0"/></g><g transform="translate(433,775)"><g><g>
<path d="M56.7,0H0v24.2h56.7V0L56.7,0z" fill="none" stroke="none" stroke-dasharray="none"/>
<rect x="2.5" y="1.1" width="51.7" height="22" fill="none"/>
<circle fill="none" cx="28.3" cy="0" r="0.1"/>
<circle fill="none" cx="42.4" cy="0" r="0.1"/>
<circle fill="none" cx="56.7" cy="6.1" r="0.1"/>
<circle fill="none" cx="56.7" cy="12.1" r="0.1"/>
<circle fill="none" cx="56.7" cy="18.1" r="0.1"/>
<circle fill="none" cx="42.4" cy="24.2" r="0.1"/>
<circle fill="none" cx="28.3" cy="24.2" r="0.1"/>
<circle fill="none" cx="14.3" cy="24.2" r="0.1"/>
<circle fill="none" cx="0" cy="18.1" r="0.1"/>
<circle fill="none" cx="0" cy="12.1" r="0.1"/>
<circle fill="none" cx="0" cy="6.1" r="0.1"/>
<circle fill="none" cx="14.3" cy="0" r="0.1"/>
</g></g><rect stroke="none" stroke-width="0" fill="#FFFFFF" x="0" y="0" width="0" height="0" transform="translate(56.6,12)"/><path stroke="#000000" fill="none" d=""/><text font-family="OpenSansCondensedLight" font-size="14pt" fill="black" transform="translate(56.6,12)"/><rect stroke-width="0" fill="none" width="51.7" height="22" transform="translate(2.5,1.1)"/><text font-family="OpenSansCondensedLight" font-size="14pt" fill="black" transform="translate(2.5,1.1)" text-anchor="middle"><tspan x="25.9" y="17.3">NO</tspan></text><path stroke="#000000" fill="none" transform="translate(2.5,1.1)" d="M 0 0"/></g><g transform="translate(171,776)"><g><g>
<path d="M42,0H0v24h42V0L42,0z" fill="none" stroke="none" stroke-dasharray="none"/>
<rect x="1.8" y="1.1" width="38.3" height="21.8" fill="none"/>
<circle fill="none" cx="21" cy="0" r="0.1"/>
<circle fill="none" cx="31.4" cy="0" r="0.1"/>
<circle fill="none" cx="42" cy="6.1" r="0.1"/>
<circle fill="none" cx="42" cy="12" r="0.1"/>
<circle fill="none" cx="42" cy="17.9" r="0.1"/>
<circle fill="none" cx="31.4" cy="24" r="0.1"/>
<circle fill="none" cx="21" cy="24" r="0.1"/>
<circle fill="none" cx="10.6" cy="24" r="0.1"/>
<circle fill="none" cx="0" cy="17.9" r="0.1"/>
<circle fill="none" cx="0" cy="12" r="0.1"/>
<circle fill="none" cx="0" cy="6.1" r="0.1"/>
<circle fill="none" cx="10.6" cy="0" r="0.1"/>
</g></g><rect stroke="none" stroke-width="0" fill="#FFFFFF" x="0" y="0" width="0" height="0" transform="translate(41.9,11.9)"/><path stroke="#000000" fill="none" d=""/><text font-family="OpenSansCondensedLight" font-size="14pt" fill="black" transform="translate(41.9,11.9)"/><rect stroke-width="0" fill="none" width="38.3" height="21.8" transform="translate(1.8,1.1)"/><text font-family="OpenSansCondensedLight" font-size="14pt" fill="black" transform="translate(1.8,1.1)" text-anchor="middle"><tspan x="19.2" y="17.2">YES</tspan></text><path stroke="#000000" fill="none" transform="translate(1.8,1.1)" d="M 0 0"/></g></g><defs/></svg>